<svg xmlns="http://www.w3.org/2000/svg" xmlns:xlink="http://www.w3.org/1999/xlink" width="198.106" height="243.658" viewBox="0 0 198.106 243.658">
  <defs>
    <filter id="Path_65996" x="0" y="0" width="198.106" height="243.658" filterUnits="userSpaceOnUse">
      <feOffset dy="3" input="SourceAlpha"/>
      <feGaussianBlur stdDeviation="3" result="blur"/>
      <feFlood flood-opacity="0.161"/>
      <feComposite operator="in" in2="blur"/>
      <feComposite in="SourceGraphic"/>
    </filter>
  </defs>
  <g id="jamaica-tallahaws-logo-svg-vector" transform="translate(9 6)">
    <g id="_x23_01964eff" transform="translate(0 0)">
      <g transform="matrix(1, 0, 0, 1, -9, -6)" filter="url(#Path_65996)">
        <path id="Path_65996-2" data-name="Path 65996" d="M0,0H.06L0,.06ZM118.71,0h3.781a24.445,24.445,0,0,1,11.343,3.361,20.76,20.76,0,0,1,7.5,7.622A20.528,20.528,0,0,1,143.8,24.006a21.688,21.688,0,0,1-3.661,9.122,27.076,27.076,0,0,1-8.462,7.622c-6.542,3.841-14.1,5.461-21.606,6-9.062.66-18.125,1.62-27.247,2.221,4.8.24,9.662.18,14.464.54a102.358,102.358,0,0,1,13.5,1.62,47.7,47.7,0,0,1,12.483,4.141,21.849,21.849,0,0,1,6.722,5.221c.42.48.78,1.14,1.44,1.44,6.722,2.7,13.263,6.662,17.645,12.6,4.021,5.341,6.062,11.823,7.442,18.3a39.836,39.836,0,0,1,9.362,7.022,38.2,38.2,0,0,1,8.582,15.844c1.5,4.981,2.4,10.323,1.44,15.484a5.924,5.924,0,0,1-.78,2.461.455.455,0,0,0,.24-.12,18.352,18.352,0,0,1-5.4,7.862c-4.441,3.721-10.023,5.641-15.544,7.022-1.86.48-3.781.72-5.581,1.32.66,3.061,1.2,6.062,1.86,9.122a11.381,11.381,0,0,1,5.281-5.461,17.358,17.358,0,0,1,8.162-1.5c3.421-.06,7.082.24,10.023,2.161a11.256,11.256,0,0,1,5.341,8.222,59.126,59.126,0,0,1,.24,7.982c0,1.86.06,3.781-.06,5.641h-1.14a14,14,0,0,1,1.56,5.761v12.9a14.779,14.779,0,0,1-4.021,9.422c-2.581,2.641-6.182,3.961-9.723,4.621-3.3.78-6.9,1.2-10.143-.06-.66-.36-1.08.36-1.5.72L141.4,221.337c-.18-2.1-.24-4.141-.48-6.242-3,3.3-6.182,6.542-9.242,9.783-.18-1.62-.3-3.241-.48-4.861-2.281,1.86-4.441,3.781-6.662,5.641h-.06c-.3-2.581-.48-5.221-.78-7.862-10.563,2.4-21.185,4.8-31.748,7.262a5.972,5.972,0,0,1-2.7.3c-3.841-.9-7.742-1.68-11.583-2.521-.48-.54-1.2-.12-1.86-.36-14.164-3.061-28.387-6.182-42.551-9.242-.3,2.221-.54,4.441-.78,6.6-2.1-1.98-4.321-3.9-6.362-6-.06,1.8.06,3.541-.06,5.341q-10.713-9.632-21.546-19.2a1.2,1.2,0,0,1-.12-.78V173.985c-1.38-.06-2.761,0-4.141,0V151.719H29.588c.3-1.56.54-3.121.96-4.621a23.275,23.275,0,0,1-4.5-4.261,8.4,8.4,0,0,0-1.92-2.221,35.063,35.063,0,0,1-5.521-4.321,18.8,18.8,0,0,1-4.8-8.162,16.893,16.893,0,0,1,.42-9.6c.12-.42.3-.9.06-1.26-.66-.9-1.32-1.8-1.92-2.761-.36.12-.54.54-.66.9-.78,2.521-1.5,5.041-2.281,7.5-.84-1.981-1.44-4.021-2.221-6-.6-1.8-1.32-3.541-1.8-5.341a50.269,50.269,0,0,1-1.5-7.382A32.332,32.332,0,0,1,5.1,89.423a19.54,19.54,0,0,1,6.182-8.7,29.466,29.466,0,0,1-4.981-9,15.234,15.234,0,0,1,.18-10.443,11.091,11.091,0,0,1,6.842-6.482,22.05,22.05,0,0,1-.6-7.922,33.568,33.568,0,0,1,7.022-17.945,40.026,40.026,0,0,1,15.6-11.7,70.4,70.4,0,0,1,19.745-5.1,127.852,127.852,0,0,1,20.885-.54,217.677,217.677,0,0,1,34.149,4.861,105.318,105.318,0,0,0,12.3,2.1c1.92.06,4.021.12,5.7-.9a4.185,4.185,0,0,0,1.74-3.661,6.342,6.342,0,0,0-2.881-4.861c-2.821-2.1-6.3-3.061-9.662-3.841a85.552,85.552,0,0,0-17.044-1.74A67.29,67.29,0,0,1,118.71,0m.6,3.481a24.576,24.576,0,0,1,7.442,2.1,10.5,10.5,0,0,1,5.521,5.821,9.035,9.035,0,0,1,.3,3.361,7.727,7.727,0,0,1-1.44,4.261,10.117,10.117,0,0,1-5.161,3.9c-1.74.66-3.661.42-5.461.42a5.721,5.721,0,0,1,.78-2.041,19.089,19.089,0,0,0-6.362,1.02c.06-.9.84-1.56,1.32-2.281a21.977,21.977,0,0,0-7.862,1.2,14.91,14.91,0,0,1,1.56-2.4,35.729,35.729,0,0,0-4.381-.24,21.15,21.15,0,0,0-4.741.78,4.442,4.442,0,0,1,1.02-2.221,33.429,33.429,0,0,0-6,.12c-.96.18-1.86.54-2.821.66a5.188,5.188,0,0,1,1.56-1.86A27.389,27.389,0,0,0,86.3,15.9a22.1,22.1,0,0,0-4.2,1.2,11.313,11.313,0,0,1,1.5-1.86,16.929,16.929,0,0,0-12.543,1.62,30.331,30.331,0,0,1,1.44-3.181A28.058,28.058,0,0,0,63.676,15.9a22.221,22.221,0,0,0-6.722,4.8c-.12-2.041.9-3.9,1.86-5.641a23.621,23.621,0,0,0-16.564,8.4c-.84.84-1.44,1.92-2.221,2.881a6.652,6.652,0,0,1-.3-1.5,30.394,30.394,0,0,1,.18-5.221,19.979,19.979,0,0,0-4.861,1.56,33.948,33.948,0,0,0-13.5,11.163,30.643,30.643,0,0,0-5.521,14.884,25.5,25.5,0,0,0,.24,6.422c.18,1.38.72,2.761.9,4.141a7.241,7.241,0,0,0-4.981,1.86,9.944,9.944,0,0,0-3.241,7.682A19.062,19.062,0,0,0,10.2,73.1a33.462,33.462,0,0,0,5.581,8.762,1.144,1.144,0,0,1,.3.6c-.66.54-1.44.9-2.1,1.38A16.1,16.1,0,0,0,8.1,92.364c-1.86,6.482-1.08,13.443.9,19.805,1.08-2.581,1.68-5.4,3.241-7.742.66,3.541,1.5,7.382,4.081,10.083a34.964,34.964,0,0,1,3.241-8.762,12.8,12.8,0,0,0,4.561,4.741c1.08-2.821,2.581-5.7,5.161-7.5,1.26-.84,2.7-1.8,4.261-1.56a4.608,4.608,0,0,1,.9.96,55.546,55.546,0,0,0,6,5.882c-3.181.36-6.3.84-9.482,1.2a21.35,21.35,0,0,0-8.882,3.841,13.556,13.556,0,0,0-5.461,9.242,12.5,12.5,0,0,0,2.341,8.822,22.9,22.9,0,0,0,6.482,6,7.707,7.707,0,0,1,2.4,1.74,23.464,23.464,0,0,0,7.442,6.722,20.411,20.411,0,0,0,9.422,2.281,37.751,37.751,0,0,0,13.563-3.241,14.1,14.1,0,0,1,2.221-.84,61.671,61.671,0,0,1,7.442.24c6,.48,12,.9,17.945,1.32,5.761.12,11.523.3,17.224-.54-.96,1.38-2.1,2.641-2.941,4.141a15.69,15.69,0,0,0-2.581,6.6H78.74c-.72,1.08-1.32,2.281-2.041,3.361-.6-1.14-1.38-2.161-1.92-3.361-4.621-.06-9.242,0-13.924-.06H42.131v6.182c-2.581.06-5.221,0-7.8,0,.06,2.581-.18,5.221.42,7.8-2.641.06-5.281,0-7.982,0,.06-4.441,0-8.882,0-13.323a15.815,15.815,0,0,0-.12-1.68c-7.742.06-15.484,0-23.166,0,0,5.221-.06,10.443,0,15.664H7.622V195.77a9.173,9.173,0,0,0,.06,2.221,23.849,23.849,0,0,0,1.8,1.68c3.661,3.3,7.382,6.6,11.1,9.9a12.476,12.476,0,0,0,1.92,1.62c.06-1.8,0-3.541.06-5.341,1.68,1.44,3.241,3,4.861,4.5a19.587,19.587,0,0,0,2.4,2.041c.06-1.2.24-2.4.36-3.6,19.625,4.2,39.25,8.522,58.875,12.723a3.691,3.691,0,0,0,1.62,0c12-2.761,24.006-5.461,36.009-8.222.24,1.92.36,3.9.54,5.821,2.521-2.941,4.861-6.122,7.322-9.182.06,2.521,0,5.041.06,7.562,2.1-2.041,3.841-4.381,5.821-6.422,1.32-1.44,2.581-2.821,3.841-4.321.24,2.641,0,5.281.12,7.922,3.6-3.481,6.962-7.2,10.5-10.683a.561.561,0,0,1,.78.06,6.311,6.311,0,0,0,1.86,1.08,11.308,11.308,0,0,0,5.1.42c3.721-.54,7.622-1.26,10.563-3.721a10.611,10.611,0,0,0,3.361-5.942,30.875,30.875,0,0,0,.24-5.761c0-2.821.06-5.641-.06-8.4a8.554,8.554,0,0,0-3.061-6.662,13.364,13.364,0,0,0-6.3-2.281v-.6h4.381c1.5,0,3.061.18,4.561.12.06-2.581,0-5.221,0-7.8a11.656,11.656,0,0,0-.66-3.781,7.855,7.855,0,0,0-4.261-4.5,17.6,17.6,0,0,0-7.682-1.08,11.141,11.141,0,0,0-8.282,2.521,11.625,11.625,0,0,0-2.881,7.442v4.681q-3.6.09-7.2,0c-2.4-4.681-5.041-9.242-7.442-13.924-2.341-.12-4.741.06-7.082-.06a23.674,23.674,0,0,1,7.022-5.641,43.272,43.272,0,0,1,9.662-3.841c1.981-.6,4.081-.78,6.062-1.38a53.051,53.051,0,0,0,9.062-2.881,19.846,19.846,0,0,0,7.862-5.821,15.308,15.308,0,0,0,2.941-8.1,15.946,15.946,0,0,0-.06-4.141,34.811,34.811,0,0,0-1.14-6.062,67.717,67.717,0,0,0-2.881-8.522,25.653,25.653,0,0,0-6.482-9.062,33.437,33.437,0,0,0-9-5.641c-1.2-5.821-2.521-11.823-5.942-16.8a28.248,28.248,0,0,0-7.982-7.8,54.863,54.863,0,0,0-9.3-4.861c-.84-.36-1.92-.6-2.461-1.5-3.121-4.741-8.342-7.622-13.744-8.822a34.386,34.386,0,0,0-10.8-.6,4.961,4.961,0,0,1,.96,1.74,21.676,21.676,0,0,1-2.641-1.32,20.4,20.4,0,0,0-5.641-1.68,24.74,24.74,0,0,0-8.4.54c.36.66.78,1.26,1.14,1.86-1.2-.48-2.221-1.32-3.481-1.8a19.083,19.083,0,0,0-8.4-1.38c-1.02.12-1.981.3-3,.42a19.711,19.711,0,0,1,1.2,1.86c-1.14-.72-2.221-1.68-3.421-2.281A18.59,18.59,0,0,0,65.3,50.293c-1.02-.12-2.1-.06-3.121-.12a10.267,10.267,0,0,1,2.521-1.68,47.045,47.045,0,0,1,9.062-2.461,86.571,86.571,0,0,1,11.823-1.08c3.361-.3,6.722,0,10.023-.24,2.221-.12,4.381-.06,6.6-.36,1.92-.12,3.841-.42,5.7-.6,6.362-.96,12.723-2.341,18.545-5.041a37.8,37.8,0,0,0,6.062-3.481,24.555,24.555,0,0,0,4.861-4.8,15.639,15.639,0,0,0,3.121-9.122,15.433,15.433,0,0,0-2.341-8.282,20.446,20.446,0,0,0-18.845-9.542Z" transform="translate(9 6)" fill="#01964e"/>
      </g>
      <path id="Path_65997" data-name="Path 65997" d="M139.351,34.822a14.521,14.521,0,0,0,3.061-7.022c.54,1.62.3,3.361.3,5.041a12.113,12.113,0,0,1-.54,2.941c-.12.24-.18.54-.3.78a12.793,12.793,0,0,1-1.8,3.481,21.682,21.682,0,0,1-7.922,6.422,46.225,46.225,0,0,1-11.163,3.781c-.66.18-1.38.3-2.041.42l-.12.12c-1.74.24-3.421.54-5.161.78-2.941.3-5.882.66-8.822.72a10.624,10.624,0,0,0-1.38.06c-3.061.24-6.182.06-9.3.18-1.62.12-3.3.06-4.921.18-1.08.18-2.161.12-3.3.24a66.316,66.316,0,0,0-17.765,3.961c-2.7,1.2-5.521,2.581-7.262,5.1a4.355,4.355,0,0,0-.96,3.061,13.715,13.715,0,0,1,4.021,6.842,15.048,15.048,0,0,0,.36-4.321,7.785,7.785,0,0,0-1.08-3.061,8.424,8.424,0,0,1,5.821,2.7,31.174,31.174,0,0,1,5.821,9.3,29.074,29.074,0,0,0,.84-5.641,17.046,17.046,0,0,0-.66-4.261,5.391,5.391,0,0,1,2.161.3c2.821,1.02,4.981,3.3,6.842,5.581a28.677,28.677,0,0,1,3.181,4.921,2.289,2.289,0,0,0,.66.84.634.634,0,0,0,.12.3c0-1.26.06-2.521.06-3.781a26.338,26.338,0,0,0-.42-4.321l-.12-.18a29.576,29.576,0,0,0-1.14-3.241,18.631,18.631,0,0,1,7.442,2.941,26.071,26.071,0,0,1,6.962,6.362,14.573,14.573,0,0,0,1.44,1.92,5.664,5.664,0,0,1,.18.54,23.463,23.463,0,0,0-.78-6.122,29.039,29.039,0,0,0-1.5-4.381,15.955,15.955,0,0,1,8.7,2.341,7.464,7.464,0,0,0,2.161,1.14,2.641,2.641,0,0,0-.6.12c.18.06.48.12.66.18a62.353,62.353,0,0,1,7.682,7.2,1.753,1.753,0,0,0,.12.54,11.99,11.99,0,0,0-1.92-9.843,1.113,1.113,0,0,0-.12-.42,33.482,33.482,0,0,1,3.421.48c.78.18,1.56.36,2.281.6a17.659,17.659,0,0,1,7.922,5.221,20.154,20.154,0,0,1,2.641,4.141,29.314,29.314,0,0,1,17.284,12.063,37.317,37.317,0,0,1,5.461,11.583c.3,1.02.48,2.1.78,3.121.12.96.24,1.92.42,2.881a6.523,6.523,0,0,1,.06,1.08c3.721,1.32,7.382,3,10.143,5.882a23.856,23.856,0,0,1,5.281,8.222c.48,1.08.84,2.161,1.26,3.3a33.118,33.118,0,0,1,1.68,6.362c.06.78.12,1.5.12,2.281a13.648,13.648,0,0,1-3.961,9.783c-3.361,3.361-7.862,5.221-12.423,6.422-.6.18-1.2.3-1.86.48a16.456,16.456,0,0,1-1.68.3l-.12.12a20.322,20.322,0,0,0-3.3.78c-1.26.36-2.461.78-3.721,1.2a40.982,40.982,0,0,0-10.263,5.1,22.15,22.15,0,0,0-2.461,2.281,3.562,3.562,0,0,0-.24.48,33.233,33.233,0,0,1,.72-4.141,14.764,14.764,0,0,1,2.281-4.681c-.24.06-.66.12-.84.18-.6.12-1.26.24-1.86.42-1.62.3-3.181.72-4.741,1.14-.84.24-1.62.54-2.461.84a51.993,51.993,0,0,0-6.362,3.121l-.36.36a12.6,12.6,0,0,1,4.921-6.482,14.043,14.043,0,0,0,1.86-1.44c-1.44.12-2.761.84-4.2,1.02a3.013,3.013,0,0,1,.72.12,6.576,6.576,0,0,0-1.56.36c-3.241,1.08-6.422,2.341-9.542,3.721-.48.24-.96.42-1.44.66a21.767,21.767,0,0,1,7.142-7.082c.24-.06.48-.12.78-.18a3.271,3.271,0,0,0-1.32.06,94.879,94.879,0,0,1-10.923,1.14c-1.92.3-3.961.12-5.882.3-2.1.12-4.141.06-6.242.06-1.56,0-3.181,0-4.741-.12-1.32,0-2.641-.06-3.961-.12a16.794,16.794,0,0,0-3-.18c-5.641-.36-11.223-1.02-16.8-1.56-2.641.18-5.1,1.32-7.562,2.161a41.382,41.382,0,0,1-5.521,1.44,21.64,21.64,0,0,1-5.221.3,14.07,14.07,0,0,1-8.822-4.081,22.626,22.626,0,0,1-3-3.721c.24.24.48.42.72.66a17.89,17.89,0,0,0,5.882,1.08,24.947,24.947,0,0,1-.84-8.942,24.158,24.158,0,0,0,4.081,6.3,4.159,4.159,0,0,0,1.5,1.2c1.62-.48,3.181-1.02,4.8-1.5l.12-.06c.54-.12,1.08-.3,1.62-.42a17.682,17.682,0,0,1-.06-2.521c.18-.78.36-1.62.48-2.4.18-.66.36-1.38.48-2.041.48,2.341,1.8,4.741,4.021,5.761a10.706,10.706,0,0,0,4.741,1.02,22.111,22.111,0,0,0,5.281-.9,14.01,14.01,0,0,0,8.342-6.422,11.888,11.888,0,0,0,1.38-8.222,19.756,19.756,0,0,0,1.8,2.761,5.647,5.647,0,0,0,4.2,1.56c2.221.24,4.5.12,6.722.3a70.185,70.185,0,0,1,7.142.72c6.842.84,13.443,3.3,20.405,3.481a19.662,19.662,0,0,0,4.2,0,28.4,28.4,0,0,0,11.943-2.641,12.949,12.949,0,0,0,7.262-8.822,14.229,14.229,0,0,0-.18-5.521,22.486,22.486,0,0,0-.96-2.581,17.676,17.676,0,0,0-4.681-6,17.477,17.477,0,0,0-8.042-3.6,18.071,18.071,0,0,0-7.8.54,14.044,14.044,0,0,1,5.7-.12,12.218,12.218,0,0,1,8.282,5.221,10.342,10.342,0,0,1,1.14,2.641,9.686,9.686,0,0,1-.24,3.721,10.431,10.431,0,0,1-4.8,5.461,30.921,30.921,0,0,1-10.2,3.6,48,48,0,0,1-7.142.72,5.919,5.919,0,0,0-1.44.18,113.9,113.9,0,0,1-15.664-.54c-1.32-.18-2.641-.54-3.9-.78l-.12-.12c-1.2-.24-2.4-.6-3.541-.9l-.18-.06a13.031,13.031,0,0,1-1.44-.42,2.641,2.641,0,0,0-.6-.12c-.54-.18-1.08-.3-1.62-.48l-1.44-.36c-1.8-.42-3.661-1.02-5.461-.42-2.041,1.08-3.421,3.061-5.461,4.261a7.46,7.46,0,0,1-4.741,1.38,9.266,9.266,0,0,0,.84,7.442,2.25,2.25,0,0,1-.06.66c-.06-.12-.18-.3-.24-.42a15.135,15.135,0,0,1-2.461-3.361c-.72-1.2-1.02-2.521-1.62-3.781-.6,1.02-1.44,1.86-1.981,2.941a7.15,7.15,0,0,0-.84,2.641c-.18,0-.36-.06-.54-.06a8.357,8.357,0,0,1-1.5-5.281,1.413,1.413,0,0,1-.48-.12c-2.1.18-4.2,0-6.3.24-1.14.06-2.221,0-3.361.12-.48.3-.48.96-.66,1.44a12.254,12.254,0,0,0,.24,4.441l.18,1.08c-.18-.06-.36-.12-.6-.18a14.031,14.031,0,0,1-5.521-6,12.309,12.309,0,0,0-3.3.3,3.345,3.345,0,0,0-2.4,2.941,12.6,12.6,0,0,0,1.32,6.242,2.042,2.042,0,0,1-.6-.06c-2.041-1.26-3.181-3.421-4.141-5.581a17.616,17.616,0,0,1-.96-3.481,12.383,12.383,0,0,0-.48,7.082c.18.6.48,1.2.66,1.86a5.846,5.846,0,0,1,.3.66c-2.641-1.68-5.341-3.661-6.722-6.6a7.692,7.692,0,0,1,.48-7.382,16.943,16.943,0,0,1,8.162-6.422,13.886,13.886,0,0,1,4.141-.96c2.641-.36,5.281-.66,7.982-1.08a40.091,40.091,0,0,0,5.341-1.08l.36.06c-.06-.06-.06-.12-.12-.12a33.74,33.74,0,0,1-6.9-5.461,73.737,73.737,0,0,1-6.242-7.382c-1.5.54-3.061,1.08-4.5,1.74-2.881,1.44-5.761,3.361-7.022,6.422a5.187,5.187,0,0,1-1.02-3.6,7.432,7.432,0,0,1,.72-3.961,6.6,6.6,0,0,1,1.74-2.281,18.175,18.175,0,0,0-5.461,3.781,13.533,13.533,0,0,0-3.061,6.062c-.72-2.221-.54-4.561-.54-6.842a14.283,14.283,0,0,1,1.5-4.861l.3-.12c-.18,0-.42.06-.6.06a10.864,10.864,0,0,0-6.242,5.942,26.377,26.377,0,0,1,1.44-7.442,15.625,15.625,0,0,1,1.38-2.4,15.14,15.14,0,0,1,5.161-4.381c1.08-.6,2.221-1.02,3.361-1.56C25.2,91,21.961,86.915,20.281,82.054a12.436,12.436,0,0,1-.42-4.441,4.789,4.789,0,0,1,3.6-4.141,6.96,6.96,0,0,1,4.8.24l-.24-.24a27.6,27.6,0,0,0-.78-3,31.84,31.84,0,0,1-.78-5.341,46.022,46.022,0,0,1,.3-7.622A29.5,29.5,0,0,1,38.285,38.9a18.6,18.6,0,0,1,4.561-2.461,9.569,9.569,0,0,0,.36,1.8,26.38,26.38,0,0,0,4.321,7.982,24.087,24.087,0,0,1,5.581-9.963,15,15,0,0,1,5.281-3.781c.36-.12.66-.18,1.02-.3.06,1.14-.3,2.281-.24,3.421a18.914,18.914,0,0,0,1.5,6.842c.12,0,.3-.06.36-.06a6.428,6.428,0,0,1,.84-2.1c2.041-3.9,4.981-7.562,9.062-9.422a5.269,5.269,0,0,1,1.38-.42c-.78,3-.06,6.182,1.02,9,.18-.48.42-.96.6-1.44A18.624,18.624,0,0,1,79.4,30.921a8.257,8.257,0,0,1,4.861-1.44,6.566,6.566,0,0,0-.78,4.381A19.325,19.325,0,0,0,84.677,38a18.03,18.03,0,0,1,3.9-5.281,9.367,9.367,0,0,1,3-1.74,13.927,13.927,0,0,1,2.281-.42c-.06.06-.18.18-.24.18A5.633,5.633,0,0,0,92.9,34.4c.06,1.14.6,2.221.54,3.361.48-.6,1.02-1.08,1.44-1.62a11.021,11.021,0,0,1,4.921-3.3c.72-.18,1.5-.36,2.221-.54v.18c-.42.18-.48.66-.6.96l-.36,1.26A12.166,12.166,0,0,0,101,38a10.448,10.448,0,0,0,.84-.72,11.5,11.5,0,0,1,3.541-2.821,2.508,2.508,0,0,0,.6-.24,8.178,8.178,0,0,1,3.961-.72,13.56,13.56,0,0,0-1.26,4.621,17.293,17.293,0,0,1,8.882-2.521,4.342,4.342,0,0,0-1.92,3.121,14.3,14.3,0,0,1,6.962-2.1,4.686,4.686,0,0,0-2.4,2.4.8.8,0,0,0,.3.18,14.612,14.612,0,0,1,5.942-1.2,2.584,2.584,0,0,0-.24,1.32,4.354,4.354,0,0,0,.54.3,15.287,15.287,0,0,0,6.542-1.02,10.909,10.909,0,0,0,6.062-3.781M79.1,32.9a21.592,21.592,0,0,0-4.141,6.122c-.78,1.38-1.14,2.881-1.8,4.321a64.479,64.479,0,0,1-2.461-7.5,9.2,9.2,0,0,1-.24-2.581,12.99,12.99,0,0,0-3.661,3.121,38.6,38.6,0,0,0-5.882,9.6,14.381,14.381,0,0,1-2.821-5.461c-.54-1.68-.18-3.481-.42-5.221a16.271,16.271,0,0,0-4.5,4.081,26.188,26.188,0,0,0-4.8,10.5c-.06,0-.24-.06-.36-.06-2.7-3.241-5.341-6.722-6.6-10.8a28.325,28.325,0,0,0-8.762,8.342A28.027,28.027,0,0,0,28.083,66.15c.24,3.781,1.44,7.442,2.521,11.1a8.074,8.074,0,0,0-3.661-1.8,4.079,4.079,0,0,0-4.2,2.041c-1.02,2.1-.48,4.561.24,6.662a37.563,37.563,0,0,0,5.581,9.3c.84,1.02,1.74,1.981,2.521,3.061a25.728,25.728,0,0,0-6.662,3,10.943,10.943,0,0,0-4.8,5.7A36.151,36.151,0,0,1,30,101.079c-.96.72-1.92,1.38-2.881,2.161a10.841,10.841,0,0,0-3.781,7.862,16.719,16.719,0,0,1,2.1-2.521,15.377,15.377,0,0,1,3.061-2.1,22.168,22.168,0,0,1,7.2-2.4c-2.161,1.74-4.261,3.661-5.341,6.242a8.812,8.812,0,0,0-.78,3.721,18.939,18.939,0,0,1,2.281-2.641,27.647,27.647,0,0,1,5.1-3.121,34.607,34.607,0,0,1,4.921-1.86,47.249,47.249,0,0,0,9.182,10.923c3.121,2.461,6.9,4.321,10.923,4.321-1.56.24-3.121.36-4.681.72-2.761.6-5.461,1.38-8.222,1.8-2.7.36-5.341.78-8.042.96a14.8,14.8,0,0,0-10.8,6.362c-1.08,1.68-1.86,3.721-1.26,5.7a9.134,9.134,0,0,0,3.3,4.5c0-1.86-.3-3.781.36-5.581a9.608,9.608,0,0,1,2.161-3.9,21.221,21.221,0,0,0,.9,4.8,13.683,13.683,0,0,0,1.74,3.661,26.51,26.51,0,0,1,.06-3.781,4.3,4.3,0,0,1,2.881-2.941c1.44-.54,2.941-.36,4.441-.6a12.084,12.084,0,0,0,3.9,5.4c-.12-1.74-.36-3.721.66-5.281.24-.36.48-.9,1.02-.84,3.9-.24,7.862-.18,11.763-.24-.48,1.44-.78,3.3.18,4.621a9.831,9.831,0,0,1,2.041-3.721,6.608,6.608,0,0,0,1.2-3c1.26,2.041,1.26,4.621,2.521,6.722.12-1.74-.3-3.541.42-5.161a8.753,8.753,0,0,0,2.761-.6c2.821-1.26,4.8-3.781,7.5-5.161a8.08,8.08,0,0,1,3.181-.12c3.9.72,7.682,1.981,11.523,2.881a41.414,41.414,0,0,0,7.142,1.26c1.26.12,2.521.24,3.841.36,6.242.12,12.543.18,18.665-1.38a22.936,22.936,0,0,0,8.942-4.081,7.56,7.56,0,0,0,3.061-5.641,6.945,6.945,0,0,0-2.941-5.7,13.627,13.627,0,0,0-6.542-2.461,25.073,25.073,0,0,0-10.323,1.2c.12-.48.66-.66,1.08-.84a30.359,30.359,0,0,1,12.543-2.821,19.417,19.417,0,0,1,8.582,1.86,16.7,16.7,0,0,1,9.422,12.483,15.077,15.077,0,0,1-.18,4.921,14.125,14.125,0,0,1-4.441,7.622c-2.941,2.7-6.842,4.081-10.683,4.921a48.005,48.005,0,0,1-16.564-.3,99.675,99.675,0,0,1-10.083-2.641,48.419,48.419,0,0,0-9.3-1.44,41.689,41.689,0,0,0-6.122-.06c-2.581.06-5.4.42-7.682-1.08-.18.66-.36,1.32-.54,2.041a12.614,12.614,0,0,1-5.461,6.842,19.987,19.987,0,0,1-10.983,2.761,8.986,8.986,0,0,1-6.542-2.221,23.094,23.094,0,0,1-1.62-1.8,19.129,19.129,0,0,0,.12,4.141,25.622,25.622,0,0,0-6.3,1.62c-.66.24-1.38.6-2.041.18a20.963,20.963,0,0,1-3.9-4.081,24.7,24.7,0,0,0,1.62,5.821,17.879,17.879,0,0,1-4.381-.18,13.626,13.626,0,0,0,11.943,3.481c4.021-.54,7.742-2.1,11.463-3.481a11.641,11.641,0,0,1,4.081-.3c3.661.3,7.322.72,10.983,1.08,5.521.42,11.043.84,16.624.78a43.368,43.368,0,0,0,5.581-.18,171.865,171.865,0,0,0,20.705-2.221c1.62-.24,3.3-.66,4.921-.78a35.594,35.594,0,0,0-5.821,3,13.311,13.311,0,0,0-3.481,2.881,42.6,42.6,0,0,1,10.023-2.941,30.183,30.183,0,0,1,4.681-.48c-.96.66-1.98,1.14-2.881,1.86-1.68,1.2-3.481,2.341-4.561,4.141.9-.3,1.74-.84,2.641-1.14a63.973,63.973,0,0,1,7.562-2.1,36.2,36.2,0,0,1,4.981-.9,26.207,26.207,0,0,0-2.4,3.9,11.258,11.258,0,0,0-1.08,3,22.5,22.5,0,0,1,7.142-4.621,55.712,55.712,0,0,1,11.943-3.541c4.561-1.02,9.182-2.581,12.663-5.882a12.5,12.5,0,0,0,4.021-8.762,28.187,28.187,0,0,0-2.161-10.143c-1.44-3.481-3.241-6.962-6.062-9.542a22.413,22.413,0,0,0-9.122-5.041,21.5,21.5,0,0,1-.54-2.7,45.32,45.32,0,0,0-5.221-15.124,27.132,27.132,0,0,0-17.464-13.2,1.167,1.167,0,0,1-.84-.54,54.11,54.11,0,0,0-3.061-4.5,15.075,15.075,0,0,0-9.662-5.341,11.318,11.318,0,0,1,1.38,5.581,28.811,28.811,0,0,1-.36,6,61.877,61.877,0,0,0-8.762-8.522c-2.881-2.221-6.122-4.261-9.783-4.681a17.135,17.135,0,0,1,1.86,9.122,15.16,15.16,0,0,1-.36,3.661,60.162,60.162,0,0,0-5.221-6.482,25.484,25.484,0,0,0-9.722-6.782,14.416,14.416,0,0,1,.72,4.261c-.06,2.881.18,5.821-.54,8.642a49.252,49.252,0,0,0-6.482-9.242,24.782,24.782,0,0,0-5.4-4.321,20.8,20.8,0,0,1,.24,5.1,15.821,15.821,0,0,1-.9,4.381,5.722,5.722,0,0,1-.78,1.74,1.935,1.935,0,0,1-.48-.84,36.207,36.207,0,0,0-2.341-4.861c-1.8-3-4.021-6-7.2-7.622a19.1,19.1,0,0,1,.42,3.721,14.352,14.352,0,0,1-1.02,4.2,5.321,5.321,0,0,1-.84,1.5c-.84-3.781-2.4-7.682-5.641-9.963a8.473,8.473,0,0,1,2.521-5.7,19.091,19.091,0,0,1,5.581-3.9,54.85,54.85,0,0,1,16.084-4.2,77.964,77.964,0,0,1,8.4-.6c3.841-.36,7.682,0,11.463-.3a96.407,96.407,0,0,0,24.426-4.5,36.716,36.716,0,0,0,7.322-3.361,11.289,11.289,0,0,0,4.441-4.441,4.487,4.487,0,0,1-1.44.9,23.994,23.994,0,0,1-6.362,1.8,17.983,17.983,0,0,1-4.741.24,3.585,3.585,0,0,1-1.38-.6,5.138,5.138,0,0,1,.3-1.38,11.936,11.936,0,0,0-2.881.42,16.863,16.863,0,0,0-2.341,1.14,19.4,19.4,0,0,1,.06-2.641,21.021,21.021,0,0,0-5.161,2.341,17.822,17.822,0,0,1,.42-3.541,19.789,19.789,0,0,0-7.2,3.121,22.782,22.782,0,0,1,.6-5.341c-3,.66-5.281,2.821-7.382,4.921a7.248,7.248,0,0,1-.36-6,6.87,6.87,0,0,0-2.161.9,21.59,21.59,0,0,0-5.1,5.341,10.948,10.948,0,0,1-.42-1.5,26.535,26.535,0,0,1-1.02-6.482c-1.74.54-3,2.041-4.081,3.481a24.954,24.954,0,0,0-2.641,4.8H84.8c-1.14-2.581-2.341-5.281-2.521-8.162a11.8,11.8,0,0,1,.18-1.44A10.824,10.824,0,0,0,79.1,32.9Z" transform="translate(-6.837 -11.116)" fill="#01964e"/>
      <path id="Path_65998" data-name="Path 65998" d="M133.288,142.1a11.237,11.237,0,0,1,7.022-2.821,16.587,16.587,0,0,1,5.942.6,41.419,41.419,0,0,1,11.163,6.122,12.609,12.609,0,0,0,4.8,1.8c-1.921.24-3.9.24-5.821.6a26.084,26.084,0,0,0-5.641,1.5,39.067,39.067,0,0,0-9.482,5.7,50.5,50.5,0,0,1-9.362,5.521,32.408,32.408,0,0,1-7.142,2.461c-2.7.48-5.461.6-8.222.84a120.449,120.449,0,0,0-14.644,1.8c5.821-1.38,11.643-3.361,16.384-7.082a40.982,40.982,0,0,0,7.022-7.742c2.461-3.361,4.8-6.722,7.982-9.3m2.821.84a14.871,14.871,0,0,0-3.9,3.361c-2.761,3.061-4.681,6.782-7.262,9.963a16.915,16.915,0,0,1-6.362,5.281c-.48.24-1.02.3-1.32.72a9.722,9.722,0,0,0,1.32-.06c1.68-.24,3.421-.18,5.1-.48.72-.12,1.38-.24,2.1-.36.24-.12.54-.18.78-.3a39.318,39.318,0,0,0,14.284-8.282,23.387,23.387,0,0,1,7.682-5.041,17.913,17.913,0,0,1,6.182-.84,32.289,32.289,0,0,0-5.521-3.361,8.6,8.6,0,0,0-3.181-1.02c.18,0,.54-.06.72-.06-.66-.18-1.26-.3-1.92-.48a11.7,11.7,0,0,0-4.321-.48,16.32,16.32,0,0,0-4.381,1.44Z" transform="translate(-40.744 -55.682)" fill="#01964e"/>
    </g>
    <g id="_x23_ffffffff" transform="translate(37.743 159.254)">
      <path id="Path_65999" data-name="Path 65999" d="M70.7,265.442h3.421V273.6a3.025,3.025,0,0,1-1.5,2.7,8.6,8.6,0,0,1-3.721.42,14.447,14.447,0,0,1-4.261-.3,2.518,2.518,0,0,1-1.56-1.56,13.442,13.442,0,0,1-.18-3.121h3.241c0,.72-.06,1.921.9,2.1a11.568,11.568,0,0,0,2.881,0c.6-.06.78-.78.78-1.26C70.7,270.243,70.638,267.843,70.7,265.442Zm10.443,0h4.381c1.981,3.721,4.021,7.442,6,11.163H87.682c-.36-.6-.72-1.26-1.08-1.86-2.221.06-4.441,0-6.722,0-.36.6-.72,1.2-1.08,1.86H75.019c2.1-3.661,4.081-7.442,6.122-11.163m.12,6.662H85.4c-.72-1.26-1.38-2.581-2.1-3.841C82.641,269.523,81.92,270.784,81.26,272.1Zm11.463-6.662h5.041c1.32,2.281,2.581,4.621,3.961,6.9,1.32-2.341,2.7-4.561,3.961-6.9,1.68-.06,3.361,0,4.981,0v11.223h-3.361v-7.8c-1.5,2.581-3,5.161-4.5,7.8h-2.281c-1.5-2.581-3-5.221-4.5-7.8v7.8H92.663c.06-3.721.06-7.5.06-11.223Zm25.326.06c1.44-.06,2.881,0,4.321,0,1.981,3.721,4.021,7.442,6,11.163-1.26,0-2.521.06-3.781,0-.42-.6-.66-1.26-1.08-1.8-2.221-.06-4.441,0-6.662-.06a19.247,19.247,0,0,0-1.14,1.86h-3.781c2.1-3.721,4.021-7.5,6.122-11.163m.06,6.542c1.38.06,2.761,0,4.141,0-.66-1.32-1.44-2.581-2.1-3.841C119.49,269.523,118.83,270.784,118.11,272.044Zm11.583-6.6h3.421v11.163h-3.421Zm6.422,1.5c.72-1.2,2.281-1.5,3.6-1.56,1.981-.06,3.961,0,6,0a5.192,5.192,0,0,1,3,.72c1.02.78,1.08,2.221,1.02,3.421h-3.421c-.06-.48-.18-1.02-.66-1.14a14.162,14.162,0,0,0-3.181-.18c-.96.06-2.161-.18-2.941.48a4.034,4.034,0,0,0-.42,2.04,4.214,4.214,0,0,0,.48,2.7c.84.66,2.041.48,3.061.48a9.049,9.049,0,0,0,3.121-.24c.54-.24.6-.9.66-1.38,1.14.06,2.281,0,3.481,0a5.651,5.651,0,0,1-.42,3,4.047,4.047,0,0,1-3.3,1.44h-6.362a4.109,4.109,0,0,1-3.181-1.14c-1.02-1.02-.96-2.521-.96-3.841C135.634,270.183,135.274,268.443,136.114,266.943Zm20.405-1.5h4.321c1.981,3.721,4.021,7.442,6,11.163h-3.781c-.36-.6-.72-1.26-1.08-1.86h-6.722c-.36.6-.72,1.26-1.08,1.86H150.4c2.041-3.661,4.081-7.442,6.122-11.163m0,6.662c1.38-.06,2.761,0,4.141,0-.6-1.32-1.38-2.581-2.041-3.841C157.96,269.523,157.24,270.784,156.52,272.1Z" transform="translate(-62.889 -265.356)" fill="#fff"/>
    </g>
    <g id="_x23_22211fff" transform="translate(3.472 3.419)">
      <path id="Path_66000" data-name="Path 66000" d="M121.623,5.759a20.665,20.665,0,0,1,18.9,9.542,16.916,16.916,0,0,1,2.341,8.282,15.234,15.234,0,0,1-3.121,9.122,24.575,24.575,0,0,1-4.861,4.8,37.8,37.8,0,0,1-6.062,3.481c-5.821,2.7-12.183,4.081-18.545,5.041-1.92.18-3.781.48-5.7.6-2.161.3-4.381.24-6.6.36-3.361.18-6.722-.06-10.023.24a86.57,86.57,0,0,0-11.823,1.08,43.084,43.084,0,0,0-9.062,2.461,9.249,9.249,0,0,0-2.521,1.68c1.02.06,2.1,0,3.121.12a19.877,19.877,0,0,1,6.662,1.981c1.2.66,2.281,1.56,3.421,2.281a12.274,12.274,0,0,0-1.2-1.86c1.02-.12,1.981-.36,3-.42a18.392,18.392,0,0,1,8.4,1.38c1.26.42,2.221,1.32,3.481,1.8a19.247,19.247,0,0,1-1.14-1.86,24.74,24.74,0,0,1,8.4-.54,21.029,21.029,0,0,1,5.641,1.68,10.876,10.876,0,0,0,2.641,1.32,4.962,4.962,0,0,0-.96-1.74,34.386,34.386,0,0,1,10.8.6c5.4,1.2,10.683,4.141,13.744,8.822.48.9,1.56,1.08,2.461,1.5a52.69,52.69,0,0,1,9.3,4.861,28.248,28.248,0,0,1,7.982,7.8c3.361,4.981,4.741,10.983,5.942,16.8a33.437,33.437,0,0,1,9,5.641,25.652,25.652,0,0,1,6.482,9.062,54.777,54.777,0,0,1,2.881,8.522,34.812,34.812,0,0,1,1.14,6.062,17.726,17.726,0,0,1-2.881,12.243,19.846,19.846,0,0,1-7.862,5.821,53.051,53.051,0,0,1-9.062,2.881c-1.981.54-4.081.78-6.062,1.38a40.587,40.587,0,0,0-9.662,3.841,24.658,24.658,0,0,0-7.022,5.641c2.341.12,4.741,0,7.082.06,2.4,4.681,4.981,9.242,7.442,13.924,2.4.06,4.8,0,7.2,0,.06-1.56,0-3.121,0-4.681a11.625,11.625,0,0,1,2.881-7.442,11.141,11.141,0,0,1,8.282-2.521,17.6,17.6,0,0,1,7.682,1.08,8.045,8.045,0,0,1,4.261,4.5,13.52,13.52,0,0,1,.66,3.781v7.8c-1.5.06-3.061-.12-4.561-.12h-4.381v.6c2.221.42,4.561.84,6.3,2.281A8.554,8.554,0,0,1,179.118,184c.06,2.821,0,5.641.06,8.4a30.874,30.874,0,0,1-.24,5.761,10.611,10.611,0,0,1-3.361,5.942c-2.941,2.461-6.842,3.241-10.563,3.721a10.526,10.526,0,0,1-5.1-.42,5.375,5.375,0,0,1-1.86-1.08c-.24-.18-.6-.3-.78-.06-3.541,3.541-6.9,7.262-10.5,10.683-.18-2.641.06-5.281-.12-7.922-1.26,1.44-2.521,2.881-3.841,4.321-1.98,2.1-3.781,4.441-5.821,6.422-.06-2.521,0-5.041-.06-7.562-2.4,3.061-4.741,6.182-7.322,9.182-.18-1.921-.3-3.9-.54-5.821-12,2.761-24.006,5.461-36.009,8.222a3.691,3.691,0,0,1-1.62,0Q62,217.4,32.561,211.071c-.12,1.2-.3,2.4-.36,3.6a19.587,19.587,0,0,1-2.4-2.041c-1.62-1.5-3.181-3.061-4.861-4.5-.06,1.8,0,3.541-.06,5.341a9.829,9.829,0,0,1-1.92-1.62c-3.721-3.3-7.382-6.542-11.1-9.9a15.732,15.732,0,0,1-1.8-1.68,9.173,9.173,0,0,1-.06-2.221V172.661c-1.38-.06-2.761,0-4.141,0-.12-5.221-.06-10.443,0-15.664H29.02a15.816,15.816,0,0,1,.12,1.68c-.06,4.441,0,8.882,0,13.323,2.641,0,5.281.06,7.982,0a42.251,42.251,0,0,1-.42-7.8h7.8v-6.182c6.242-.06,12.483,0,18.725,0,4.621,0,9.242-.06,13.924.06a37.3,37.3,0,0,0,1.92,3.361c.72-1.14,1.32-2.281,2.041-3.361H99.958a16.187,16.187,0,0,1,2.581-6.6c.84-1.44,1.981-2.7,2.941-4.141-5.7.84-11.463.6-17.224.54-6-.42-12-.78-17.945-1.32a61.671,61.671,0,0,0-7.442-.24,9.943,9.943,0,0,0-2.221.84A36.823,36.823,0,0,1,47.084,150.4a20.593,20.593,0,0,1-9.422-2.281,23.464,23.464,0,0,1-7.442-6.722,7.707,7.707,0,0,0-2.4-1.74,22.9,22.9,0,0,1-6.482-6A12.582,12.582,0,0,1,19,124.829a13.3,13.3,0,0,1,5.461-9.242,20.7,20.7,0,0,1,8.882-3.841c3.181-.36,6.3-.84,9.482-1.2a55.546,55.546,0,0,1-6-5.882,4.608,4.608,0,0,0-.9-.96c-1.62-.24-3,.72-4.261,1.56-2.521,1.8-4.021,4.621-5.161,7.5a12.8,12.8,0,0,1-4.561-4.741,41.549,41.549,0,0,0-3.241,8.762c-2.581-2.7-3.421-6.482-4.081-10.083-1.56,2.341-2.221,5.161-3.241,7.742-1.981-6.362-2.761-13.323-.9-19.805a16.326,16.326,0,0,1,5.882-8.522c.66-.48,1.44-.9,2.1-1.38a.833.833,0,0,0-.3-.6,31.984,31.984,0,0,1-5.581-8.762,17.094,17.094,0,0,1-1.26-5.761,9.828,9.828,0,0,1,3.241-7.682,7.241,7.241,0,0,1,4.981-1.86c-.18-1.38-.72-2.7-.9-4.141a25.6,25.6,0,0,1-.24-6.422,31.253,31.253,0,0,1,5.521-14.884,33.862,33.862,0,0,1,13.5-11.163,22.964,22.964,0,0,1,4.861-1.56,30.394,30.394,0,0,0-.18,5.221,4.179,4.179,0,0,0,.3,1.5c.78-.9,1.38-1.981,2.221-2.881a23.506,23.506,0,0,1,16.564-8.4c-.9,1.74-1.981,3.6-1.86,5.641a22.221,22.221,0,0,1,6.722-4.8,28.058,28.058,0,0,1,8.822-2.221c-.48,1.08-1.08,2.1-1.44,3.181a16.648,16.648,0,0,1,12.543-1.62,14.547,14.547,0,0,0-1.5,1.86,24.169,24.169,0,0,1,4.2-1.2,27.389,27.389,0,0,1,8.282.18,4.281,4.281,0,0,0-1.56,1.86c.96-.12,1.86-.54,2.821-.66a25.111,25.111,0,0,1,6-.12,4.442,4.442,0,0,0-1.02,2.221,17.812,17.812,0,0,1,4.741-.78,35.087,35.087,0,0,1,4.381.24c-.54.78-1.08,1.56-1.56,2.4a19.459,19.459,0,0,1,7.862-1.2c-.48.72-1.26,1.32-1.32,2.281a19.089,19.089,0,0,1,6.362-1.02,7.576,7.576,0,0,0-.78,2.041c1.8,0,3.721.24,5.461-.42a10.117,10.117,0,0,0,5.161-3.9,6.894,6.894,0,0,0,1.44-4.261,9.035,9.035,0,0,0-.3-3.361,10.5,10.5,0,0,0-5.521-5.821,26.822,26.822,0,0,0-7.5-2.1m14.584,7.322a8.476,8.476,0,0,1,.78,5.821,13.04,13.04,0,0,1-3.9,7.022,14.465,14.465,0,0,1-9.843,3.6,5,5,0,0,1,1.86-2.161,20.059,20.059,0,0,0-6.242,1.08,8.456,8.456,0,0,1,1.5-2.4,16.25,16.25,0,0,0-6.3,1.56,7.1,7.1,0,0,1,1.56-2.221,29.477,29.477,0,0,0-4.621.18,13.8,13.8,0,0,0-3.841.9,9.707,9.707,0,0,1,1.62-3.481c-3.6-.24-7.442.18-10.443,2.341a8.183,8.183,0,0,1,2.641-3.721,15.16,15.16,0,0,0-11.1,3.9,5.386,5.386,0,0,1,.6-2.7A6.533,6.533,0,0,1,93.6,20.1a13.222,13.222,0,0,0-10.023,2.341,14.79,14.79,0,0,0-3.121,3.3,4.022,4.022,0,0,1-.18-2.521,7.083,7.083,0,0,1,2.881-3.961,12.564,12.564,0,0,0-10.323,2.821,15.826,15.826,0,0,0-3.6,5.041,10.26,10.26,0,0,1,2.641-8.162,15.059,15.059,0,0,0-5.581,1.44,20.894,20.894,0,0,0-9.242,9.122c-.42-3.061-.48-6.482,1.14-9.242a21.413,21.413,0,0,0-7.8,3.361,22.544,22.544,0,0,0-8.042,9.783,14.576,14.576,0,0,1-2.281-8.042.455.455,0,0,0-.12-.24,17.689,17.689,0,0,0-3.121,1.2,29.233,29.233,0,0,0-10.5,9,29.815,29.815,0,0,0-6.242,17.885l.18,3.241a24.041,24.041,0,0,0,1.5,6.122,4.485,4.485,0,0,0-2.341-.36A6.539,6.539,0,0,0,13.9,67.094c-.78,2.881.06,5.942,1.26,8.642A42.755,42.755,0,0,0,21.878,85.7a15.459,15.459,0,0,0-5.4,3.241,15.107,15.107,0,0,0-4.5,8.222,26.061,26.061,0,0,0,.06,10.983,43.053,43.053,0,0,1,2.161-5.461,10.956,10.956,0,0,1,2.281-3.241,21.474,21.474,0,0,0-.24,4.381,50.123,50.123,0,0,0,1.74,9.422,70.082,70.082,0,0,1,2.4-6.782,12.427,12.427,0,0,1,2.221-3.6,11.169,11.169,0,0,0,.42,3.121,12.612,12.612,0,0,0,2.581,4.2,13.248,13.248,0,0,1,2.041-3.421,16.534,16.534,0,0,1,8.882-5.161A38.386,38.386,0,0,0,46.9,111.866c-3.241.66-6.6.9-9.9,1.32a27.094,27.094,0,0,0-5.761,1.08,16.534,16.534,0,0,0-6.422,4.081,12.724,12.724,0,0,0-3.721,8.1,9.162,9.162,0,0,0,2.1,6c2.161,2.821,5.281,4.741,8.342,6.482a14.191,14.191,0,0,0,2.4,3.241,17.106,17.106,0,0,0,10.743,5.7c4.561.54,9.182-.66,13.383-2.4,1.26-.48,2.461-1.08,3.781-1.5a19.715,19.715,0,0,1,4.2.18c7.382.78,14.764,1.56,22.146,1.68a130.794,130.794,0,0,0,23.226-1.26,30.634,30.634,0,0,0-6.542,7.082,14.541,14.541,0,0,0-2.521,4.261,16.961,16.961,0,0,1,5.161-3.721c3.421-1.68,6.9-3.421,10.443-4.8a23.046,23.046,0,0,0-4.381,12.063,18.514,18.514,0,0,1,3.781-4.621,25.677,25.677,0,0,1,6.782-4.5,26.3,26.3,0,0,1,6.962-2.281,19.037,19.037,0,0,0-1.8,7.262,22.9,22.9,0,0,0,.96,8.282,10.845,10.845,0,0,1,.72-4.981c1.56-3.541,4.861-6,8.162-7.862a46.371,46.371,0,0,1,7.862-3.061c3.661-1.14,7.5-1.74,11.163-3a29.981,29.981,0,0,0,8.522-4.021,15.129,15.129,0,0,0,5.641-6.9,18.841,18.841,0,0,0,.66-9.482,50.278,50.278,0,0,0-2.521-8.762,28.164,28.164,0,0,0-6.6-10.383,23.037,23.037,0,0,0-9.482-5.221,41.027,41.027,0,0,0-6.242-17.585,30.506,30.506,0,0,0-6.422-6.9,34.958,34.958,0,0,0-11.763-5.882c-.42-.06-.54-.54-.78-.9a18.594,18.594,0,0,0-11.4-8.642,29.592,29.592,0,0,0-7.922-1.02,11.964,11.964,0,0,1,3.181,7.5,33.9,33.9,0,0,0-6.782-5.641,18.025,18.025,0,0,0-12.6-2.7,13.648,13.648,0,0,1,2.7,6.422,28.129,28.129,0,0,0-6.3-4.981,17.793,17.793,0,0,0-10.143-2.7,8.033,8.033,0,0,1,1.74,2.7,20.992,20.992,0,0,1,1.26,6.062,20.169,20.169,0,0,0-6.482-7.862,11.124,11.124,0,0,0-7.742-1.981,15.39,15.39,0,0,1,1.2,6.362,28.966,28.966,0,0,0-2.161-3.361c-2.041-2.7-4.8-5.041-8.222-5.581a14.525,14.525,0,0,1,4.081-3.3,36.665,36.665,0,0,1,12.3-3.781,111.7,111.7,0,0,1,17.344-1.02,127.165,127.165,0,0,0,23.406-2.1,51.107,51.107,0,0,0,13.2-4.441,22.362,22.362,0,0,0,7.982-6.6,14.777,14.777,0,0,0,2.761-9.3c-.72-3.361-1.92-7.022-4.381-9.6M9.995,161.618v5.041h4.081c.12,2.521-.06,5.1.12,7.622v9.062c-.12,2.821-.06,5.641-.06,8.462.06,2.281-.06,4.5,0,6.782a2.8,2.8,0,0,0,.84.84c1.86,1.62,3.6,3.3,5.461,4.861V187.905c-.06-2.641.12-5.341.12-7.982-.24-3.9-.06-7.742-.12-11.643l-2.881-1.44c1.5.06,3.061-.12,4.561,0a11.836,11.836,0,0,0,2.521-.12q-.09-2.521,0-5.041h-2.1c-4.141-.18-8.342-.06-12.543-.06m37.87,0v7.142c0,.54-.12,1.2-.78,1.26a11.567,11.567,0,0,1-2.881,0c-.96-.12-.9-1.32-.9-2.1H40.063a13.636,13.636,0,0,0,.18,3.121,2.164,2.164,0,0,0,1.56,1.56,14.448,14.448,0,0,0,4.261.3,8.6,8.6,0,0,0,3.721-.42,2.91,2.91,0,0,0,1.5-2.7v-8.162H47.865m10.443,0c-2.041,3.721-4.021,7.442-6.122,11.163,1.26.06,2.521,0,3.781,0,.36-.6.72-1.26,1.08-1.86h6.722c.36.6.72,1.2,1.08,1.86H68.69c-1.981-3.721-4.021-7.442-6-11.163H58.307m11.583,0v11.163h3.361v-7.8c1.56,2.581,3,5.221,4.5,7.8h2.281c1.5-2.581,3-5.221,4.5-7.8v7.8h3.361V161.558H82.914c-1.26,2.341-2.7,4.561-3.961,6.9-1.32-2.281-2.641-4.621-3.961-6.9-1.74.06-3.421.06-5.1.06m25.326.06c-2.161,3.661-4.081,7.442-6.182,11.163h3.781c.36-.6.72-1.26,1.14-1.86,2.221.06,4.441-.06,6.662.06.42.54.66,1.2,1.08,1.8,1.26.06,2.521,0,3.781,0-1.981-3.721-4.021-7.442-6-11.163-1.38,0-2.821-.06-4.261,0m11.643-.06v11.163h3.421V161.618H106.86m6.422,1.5c-.78,1.5-.48,3.241-.54,4.8,0,1.32-.06,2.881.96,3.841a4.109,4.109,0,0,0,3.181,1.14h6.362c1.2-.06,2.641-.3,3.3-1.44a5.651,5.651,0,0,0,.42-3h-3.481c-.06.54-.12,1.14-.66,1.38a9.048,9.048,0,0,1-3.121.24c-1.02-.06-2.221.18-3.061-.48-.6-.72-.42-1.8-.48-2.7.06-.72-.06-1.5.42-2.041.84-.66,1.981-.48,2.941-.48a11.223,11.223,0,0,1,3.181.18c.48.18.6.72.66,1.14h3.421c.06-1.2,0-2.641-1.02-3.421a5.191,5.191,0,0,0-3-.72h-6c-1.2.06-2.761.36-3.481,1.56m20.405-1.5-6.122,11.163c1.26.06,2.521,0,3.781,0,.36-.6.72-1.26,1.08-1.86h6.722c.36.6.72,1.2,1.08,1.86h3.781c-1.98-3.721-4.021-7.442-6-11.163h-4.321m26.827,1.74a7.237,7.237,0,0,0-1.44,4.681V178a9.307,9.307,0,0,0,.66,4.021c.66,1.38,2.281,1.98,3.661,2.281,2.641.42,5.281.78,7.922,1.14l-2.881.36c.3,2.821.12,5.641.18,8.462a13.636,13.636,0,0,1-.18,3.121c-.36.96-1.56,1.14-2.461,1.14-.6.06-1.02-.6-.96-1.14-.06-1.08,0-2.161,0-3.181-1.98.3-3.961.6-5.882.96a30.5,30.5,0,0,0,.3,6.182,3.349,3.349,0,0,0,1.62,2.281,8.119,8.119,0,0,0,4.321.18c2.4-.48,4.921-.84,6.9-2.281a6.633,6.633,0,0,0,2.4-5.7c-.06-2.7.06-5.461,0-8.162-.06-1.86.3-3.841-.54-5.521-.66-1.32-2.161-1.86-3.541-2.221-2.641-.48-5.341-.9-7.982-1.5.96-.06,1.86-.18,2.821-.24a6.919,6.919,0,0,1-.18-1.56v-6.9a5.015,5.015,0,0,1,.42-2.821,2.982,2.982,0,0,1,2.581.06c.6,1.02.36,2.281.36,3.421,1.86-.06,3.781-.18,5.641-.24a29.764,29.764,0,0,0-.18-4.621,3.587,3.587,0,0,0-1.92-2.761c-2.1-1.08-4.561-.84-6.842-.9-1.68,0-3.541.18-4.8,1.5m-69.858,12.9c1.08,14.284,2.1,28.507,3.241,42.791,2.041-.42,4.081-.9,6.182-1.32,2.281-9,4.561-18.065,6.842-27.067-.24,2.641-.48,5.221-.78,7.862a3.5,3.5,0,0,0,.18,1.38c1.5,5.161,2.881,10.323,4.381,15.484,2.041-.42,4.141-.84,6.182-1.32,1.08-12.6,2.1-25.206,3.241-37.81-2.1-.06-4.2,0-6.3,0-.36,3.721-.66,7.5-.96,11.223-.18,3-.72,6.062-.06,9,.54,2.881.9,5.822,1.56,8.7-.96-3-1.74-6.122-2.641-9.122-1.8-6.6-3.661-13.2-5.521-19.805h-1.8c-2.581,10.443-5.281,20.885-7.922,31.388.36-3.361.96-6.722,1.38-10.083a18.925,18.925,0,0,0,.36-3.661c-.48-5.881-.9-11.763-1.38-17.645-1.981,0-4.081-.06-6.182,0m34.149,0c-1.14,10.323-2.281,20.705-3.421,31.028-.18,1.98-.54,3.961-.54,6,1.981-.48,3.961-.84,5.942-1.32.48-.06.78-.48,1.08-.78,1.44-1.62,2.941-3.241,4.441-4.861.18,1.44.24,2.881.42,4.321l5.4-6.842a.994.994,0,0,0,.3-.78L135.007,176.2c-2.341.06-4.741-.18-7.082-.06-1.02.12-2.1.06-3.121.12m16.324,0V208.85c1.32-1.38,2.521-2.821,3.841-4.2.84-.96,1.8-1.8,2.581-2.761.06-2.641,0-5.341.06-7.982,2.1-.24,4.2-.6,6.3-.72-1.02.6-2.041,1.2-3,1.86.06,3.961,0,7.862-.06,11.823,2.281-2.041,4.261-4.381,6.482-6.542.12-5.761.06-11.583.06-17.344.06-2.221-.12-4.441-.06-6.662h-6.422v11.7c-2.1.18-4.2.36-6.3.48.96-.6,1.981-1.2,3-1.74-.06-3.481.12-6.962-.06-10.443-2.221-.12-4.321-.12-6.422-.06m-65.537.12c-1.14,11.643-2.461,23.286-3.6,34.929,1.92,1.86,3.961,3.661,5.942,5.521.18-1.32.3-2.641.42-3.961,1.68,1.74,3.421,3.481,5.041,5.281,2.521.6,5.041,1.14,7.5,1.68-1.68-14.524-3.361-28.987-5.041-43.511-3.361-.06-6.782.12-10.263.06m-49.333.24c-1.14,7.922-2.341,15.9-3.541,23.826,1.981,1.92,3.961,3.721,6,5.581.24-1.38.36-2.761.54-4.141,1.68,1.68,3.3,3.421,4.981,5.161a2.047,2.047,0,0,0,1.14.42c1.981.36,3.961.9,5.942,1.26-1.44-10.743-2.821-21.485-4.381-32.228-3.541.06-7.142.06-10.683.12m16.324.06c0,.84-.12,1.68-.12,2.521.06,3.3-.06,6.6.06,9.9-.12,2.881-.06,5.761-.06,8.642.06,3.781-.06,7.562.06,11.4,4.321.9,8.582,1.86,12.843,2.821.06-2.161,0-4.381.06-6.542-3.181-.72-6.3-1.38-9.482-2.1,1.02-.42,2.161-.72,3.181-1.14.06-6.3,0-12.663.06-19.025.06-.42-.24-.66-.54-.9-2.041-1.86-4.081-3.721-6.062-5.581m14.944,7.5v28.327c4.321.9,8.582,1.86,12.9,2.821.06-2.221-.06-4.381.06-6.6-3.181-.84-6.362-1.5-9.542-2.281,1.02-.42,2.041-.84,3.121-1.2.06-7.322-.06-14.584.06-21.906-2.161-2.221-4.441-4.381-6.542-6.662-.12,2.461,0,4.981-.06,7.5Z" transform="translate(-5.785 -5.696)" fill="#22211f"/>
      <path id="Path_66001" data-name="Path 66001" d="M80.615,35.06a6.908,6.908,0,0,1,3.121-1.86,11.805,11.805,0,0,0-.18,1.44c.12,2.881,1.38,5.581,2.521,8.162h.42A28.685,28.685,0,0,1,89.137,38c1.08-1.44,2.281-2.941,4.081-3.481A26.535,26.535,0,0,0,94.239,41a14.011,14.011,0,0,0,.42,1.5,23.955,23.955,0,0,1,5.1-5.341,6.14,6.14,0,0,1,2.161-.9,7.028,7.028,0,0,0,.36,6c2.1-2.1,4.441-4.261,7.382-4.921a22.782,22.782,0,0,0-.6,5.341,19.789,19.789,0,0,1,7.2-3.121,17.311,17.311,0,0,0-.42,3.541,16.7,16.7,0,0,1,5.161-2.341,19.181,19.181,0,0,0-.06,2.641c.78-.36,1.5-.84,2.341-1.14a11.52,11.52,0,0,1,2.881-.42,11.354,11.354,0,0,0-.3,1.38,3.585,3.585,0,0,0,1.38.6,17.983,17.983,0,0,0,4.741-.24,25.725,25.725,0,0,0,6.362-1.8,4.487,4.487,0,0,0,1.44-.9,10.915,10.915,0,0,1-4.441,4.441,36.717,36.717,0,0,1-7.322,3.361,99.117,99.117,0,0,1-24.426,4.5c-3.841.36-7.682,0-11.463.3-2.821.06-5.581.3-8.4.6a54.85,54.85,0,0,0-16.084,4.2,19.092,19.092,0,0,0-5.581,3.9,8.6,8.6,0,0,0-2.521,5.7c3.241,2.341,4.8,6.242,5.641,9.963a5.322,5.322,0,0,0,.84-1.5,14.827,14.827,0,0,0,1.02-4.2,15.386,15.386,0,0,0-.42-3.721c3.241,1.62,5.461,4.621,7.2,7.622a45.322,45.322,0,0,1,2.341,4.861,2.355,2.355,0,0,0,.48.84,6.456,6.456,0,0,0,.78-1.74,15.821,15.821,0,0,0,.9-4.381,24.237,24.237,0,0,0-.24-5.1,26.7,26.7,0,0,1,5.4,4.321,47.378,47.378,0,0,1,6.482,9.242c.72-2.821.48-5.761.54-8.642a17.6,17.6,0,0,0-.72-4.261,25.484,25.484,0,0,1,9.722,6.782,54.806,54.806,0,0,1,5.221,6.482,15.16,15.16,0,0,0,.36-3.661,17.135,17.135,0,0,0-1.86-9.122c3.661.48,6.9,2.521,9.783,4.681a58.842,58.842,0,0,1,8.762,8.522,28.812,28.812,0,0,0,.36-6,11.318,11.318,0,0,0-1.38-5.581,14.931,14.931,0,0,1,9.662,5.341,39.529,39.529,0,0,1,3.061,4.5,1.167,1.167,0,0,0,.84.54,26.619,26.619,0,0,1,10.563,5.1,28.01,28.01,0,0,1,6.9,8.1A44.865,44.865,0,0,1,157.015,112a14.354,14.354,0,0,0,.54,2.7,22.033,22.033,0,0,1,9.122,5.041,26.67,26.67,0,0,1,6.062,9.542,25.866,25.866,0,0,1,2.161,10.143,12.263,12.263,0,0,1-4.021,8.762c-3.481,3.3-8.1,4.861-12.663,5.882a54.717,54.717,0,0,0-11.943,3.541,21.516,21.516,0,0,0-7.142,4.621,17.906,17.906,0,0,1,1.08-3,26.209,26.209,0,0,1,2.4-3.9,28.978,28.978,0,0,0-4.981.9,67.328,67.328,0,0,0-7.562,2.1c-.9.3-1.74.84-2.641,1.14,1.08-1.8,2.941-2.941,4.561-4.141.9-.72,1.981-1.2,2.881-1.86a24.784,24.784,0,0,0-4.681.48,41,41,0,0,0-10.023,2.941,12.4,12.4,0,0,1,3.481-2.881,35.593,35.593,0,0,1,5.821-3,44.235,44.235,0,0,0-4.921.78,183.455,183.455,0,0,1-20.705,2.221c-1.86.18-3.721.12-5.581.18-5.581.06-11.1-.42-16.624-.78l-10.983-1.08a10.38,10.38,0,0,0-4.081.3c-3.781,1.38-7.5,2.941-11.463,3.481a13.626,13.626,0,0,1-11.943-3.481,17.759,17.759,0,0,0,4.381.18,23.923,23.923,0,0,1-1.62-5.821,25.121,25.121,0,0,0,3.9,4.081c.66.36,1.38,0,2.041-.18a28.609,28.609,0,0,1,6.3-1.62,15.961,15.961,0,0,1-.12-4.141,15.677,15.677,0,0,0,1.62,1.8,8.986,8.986,0,0,0,6.542,2.221,20.248,20.248,0,0,0,10.983-2.761,12.83,12.83,0,0,0,5.461-6.842c.18-.66.36-1.32.54-2.041,2.281,1.44,5.1,1.14,7.682,1.08a41.689,41.689,0,0,1,6.122.06,49.153,49.153,0,0,1,9.3,1.44,99.671,99.671,0,0,0,10.083,2.641,48.005,48.005,0,0,0,16.564.3c3.841-.78,7.742-2.161,10.683-4.921a13.766,13.766,0,0,0,4.441-7.622,19.334,19.334,0,0,0,.18-4.921,16.7,16.7,0,0,0-9.422-12.483,18.625,18.625,0,0,0-8.582-1.86,29.442,29.442,0,0,0-12.543,2.821c-.42.18-.9.36-1.08.84a25.073,25.073,0,0,1,10.323-1.2,14.266,14.266,0,0,1,6.542,2.461,6.945,6.945,0,0,1,2.941,5.7,7.664,7.664,0,0,1-3.061,5.641,21.683,21.683,0,0,1-8.942,4.081c-6.062,1.56-12.423,1.5-18.665,1.38-1.26-.06-2.521-.24-3.841-.36a32.426,32.426,0,0,1-7.142-1.26c-3.841-.9-7.622-2.161-11.523-2.881a9.453,9.453,0,0,0-3.181.12c-2.7,1.44-4.741,3.9-7.5,5.161a8.406,8.406,0,0,1-2.761.6c-.72,1.62-.3,3.421-.42,5.161-1.26-2.1-1.26-4.681-2.521-6.722a6.888,6.888,0,0,1-1.2,3,10.3,10.3,0,0,0-2.041,3.721c-.96-1.32-.66-3.181-.18-4.621-3.9.06-7.862,0-11.763.24-.54-.06-.72.48-1.02.84-1.02,1.56-.72,3.481-.66,5.281a12.92,12.92,0,0,1-3.9-5.4c-1.5.24-3,.06-4.441.6a4.186,4.186,0,0,0-2.881,2.941,26.511,26.511,0,0,0-.06,3.781,13.683,13.683,0,0,1-1.74-3.661,21.861,21.861,0,0,1-.9-4.8,9.608,9.608,0,0,0-2.161,3.9c-.6,1.8-.36,3.721-.36,5.581a9.135,9.135,0,0,1-3.3-4.5,6.935,6.935,0,0,1,1.26-5.7,14.908,14.908,0,0,1,10.8-6.362c2.7-.18,5.4-.6,8.042-.96,2.761-.42,5.461-1.26,8.222-1.8,1.56-.36,3.121-.48,4.681-.72-4.021.06-7.862-1.8-10.923-4.321a44.457,44.457,0,0,1-9.182-10.923,24.4,24.4,0,0,0-4.921,1.86,24.739,24.739,0,0,0-5.1,3.121,16.028,16.028,0,0,0-2.281,2.641,9.835,9.835,0,0,1,.78-3.721c1.08-2.581,3.241-4.5,5.341-6.242a20.831,20.831,0,0,0-7.2,2.4,13.216,13.216,0,0,0-3.061,2.1,16.719,16.719,0,0,0-2.1,2.521A10.841,10.841,0,0,1,28.4,105.7c.9-.78,1.92-1.44,2.881-2.161A36.152,36.152,0,0,0,20.9,107.679a11.131,11.131,0,0,1,4.8-5.7,22.268,22.268,0,0,1,6.662-3c-.78-1.08-1.68-2.041-2.521-3.061-2.161-2.881-4.381-5.882-5.581-9.3-.72-2.1-1.26-4.561-.24-6.662a3.99,3.99,0,0,1,4.2-2.041,7.79,7.79,0,0,1,3.661,1.8,46.584,46.584,0,0,1-2.521-11.1,28.027,28.027,0,0,1,4.561-18.785,28.561,28.561,0,0,1,8.822-8.342c1.2,4.081,3.9,7.562,6.6,10.8.06,0,.24.06.36.06a27.027,27.027,0,0,1,4.8-10.5,16.271,16.271,0,0,1,4.5-4.081c.24,1.74-.12,3.541.42,5.221a14.381,14.381,0,0,0,2.821,5.461,40.458,40.458,0,0,1,5.882-9.6,15.29,15.29,0,0,1,3.661-3.121,9.412,9.412,0,0,0,.24,2.581,57.644,57.644,0,0,0,2.461,7.5,38.628,38.628,0,0,1,1.8-4.321,23.146,23.146,0,0,1,4.321-6.422M100.9,99.7c-3.181,2.581-5.521,6-8.042,9.182-2.1,2.761-4.2,5.641-7.022,7.742-4.741,3.661-10.623,5.641-16.384,7.082A133.626,133.626,0,0,1,84.1,121.9c2.761-.24,5.521-.36,8.222-.84A27.983,27.983,0,0,0,99.46,118.6a52.538,52.538,0,0,0,9.362-5.521,46.27,46.27,0,0,1,9.482-5.7,26.084,26.084,0,0,1,5.641-1.5c1.92-.36,3.9-.36,5.821-.6a12.609,12.609,0,0,1-4.8-1.8A42.958,42.958,0,0,0,113.8,97.356a16.587,16.587,0,0,0-5.942-.6A12.426,12.426,0,0,0,100.9,99.7Zm-36.429,79.58c.66-1.32,1.38-2.521,2.041-3.841.72,1.26,1.38,2.581,2.1,3.841Zm36.849-.06c.72-1.26,1.38-2.581,2.1-3.841.66,1.32,1.44,2.581,2.1,3.841C104.081,179.277,102.7,179.277,101.321,179.217Zm38.41.06c.66-1.32,1.38-2.581,2.041-3.841.66,1.26,1.44,2.521,2.041,3.841C142.491,179.277,141.111,179.217,139.73,179.277ZM37.7,191.34c.48,4.981,1.02,9.963,1.5,14.944a7.342,7.342,0,0,0,.84,2.161c.96,1.98,1.981,3.961,2.821,6-2.281-2.581-4.561-5.1-6.9-7.622.54-5.161,1.14-10.323,1.74-15.484Zm96.925,18.185,1.44-17.825c.6,6.122,1.08,12.243,1.68,18.425,0,.3.18.72-.06.96-2.221,2.461-4.441,4.861-6.662,7.322,1.02-2.4,2.221-4.741,3.3-7.142a7.51,7.51,0,0,0,.3-1.74ZM86.737,192c.3,2.761.42,5.521.6,8.282.36,5.161.66,10.383,1.02,15.544a3.635,3.635,0,0,0,.66,1.74c1.08,2.161,2.1,4.321,3.121,6.482-1.92-2.161-3.9-4.261-5.821-6.422-.42-.54-1.2-.96-1.2-1.74.48-7.922,1.14-15.9,1.62-23.886Z" transform="translate(-11.828 -16.694)" fill="#22211f"/>
    </g>
    <g id="_x23_fddc04ff" transform="translate(7.682 10.803)">
      <path id="Path_66002" data-name="Path 66002" d="M139.6,18a15.317,15.317,0,0,1,3.841,9.722,14.777,14.777,0,0,1-2.761,9.3,23,23,0,0,1-7.982,6.6,51.106,51.106,0,0,1-13.2,4.441,127.636,127.636,0,0,1-23.406,2.1,112.137,112.137,0,0,0-17.344,1.02,36.665,36.665,0,0,0-12.3,3.781,14.525,14.525,0,0,0-4.081,3.3c3.421.6,6.182,2.941,8.222,5.581a24.635,24.635,0,0,1,2.161,3.361,16.424,16.424,0,0,0-1.2-6.362,11.124,11.124,0,0,1,7.742,1.981,20.169,20.169,0,0,1,6.482,7.862,23.2,23.2,0,0,0-1.26-6.062,6.769,6.769,0,0,0-1.74-2.7,17.918,17.918,0,0,1,10.143,2.7,28.129,28.129,0,0,1,6.3,4.981,14.179,14.179,0,0,0-2.7-6.422,17.959,17.959,0,0,1,12.6,2.7,33.9,33.9,0,0,1,6.782,5.641,12.1,12.1,0,0,0-3.181-7.5,27.1,27.1,0,0,1,7.922,1.02,18.646,18.646,0,0,1,11.4,8.642c.24.3.3.84.78.9a32.878,32.878,0,0,1,11.763,5.882,29.209,29.209,0,0,1,6.422,6.9,41.027,41.027,0,0,1,6.242,17.585,23.037,23.037,0,0,1,9.482,5.221,26.712,26.712,0,0,1,6.6,10.383,48.818,48.818,0,0,1,2.521,8.762,18.193,18.193,0,0,1-.66,9.482,14.764,14.764,0,0,1-5.641,6.9,33.616,33.616,0,0,1-8.522,4.021c-3.661,1.26-7.442,1.86-11.163,3A52.024,52.024,0,0,0,142,155.8c-3.3,1.86-6.542,4.321-8.162,7.862a10.845,10.845,0,0,0-.72,4.981,25.688,25.688,0,0,1-.96-8.282,18.768,18.768,0,0,1,1.8-7.262A31.527,31.527,0,0,0,127,155.375a28.374,28.374,0,0,0-6.782,4.5,18.757,18.757,0,0,0-3.781,4.621,23.046,23.046,0,0,1,4.381-12.063c-3.541,1.38-7.022,3.121-10.443,4.8a17.724,17.724,0,0,0-5.161,3.721,14.541,14.541,0,0,1,2.521-4.261c1.981-2.581,3.9-5.221,6.542-7.082a136.7,136.7,0,0,1-23.226,1.26c-7.442-.12-14.824-.9-22.146-1.68a16.451,16.451,0,0,0-4.2-.18c-1.26.42-2.521,1.02-3.781,1.5-4.2,1.74-8.762,2.941-13.383,2.4a17.106,17.106,0,0,1-10.743-5.7,15.632,15.632,0,0,1-2.4-3.241c-3.061-1.74-6.182-3.661-8.342-6.482a9.162,9.162,0,0,1-2.1-6,12.89,12.89,0,0,1,3.721-8.1,17.255,17.255,0,0,1,6.422-4.081,31.45,31.45,0,0,1,5.761-1.08c3.3-.42,6.6-.6,9.9-1.32a39.278,39.278,0,0,1-10.383-10.263,16.6,16.6,0,0,0-8.882,5.161,13.248,13.248,0,0,0-2.041,3.421,11.709,11.709,0,0,1-2.581-4.2,10.88,10.88,0,0,1-.42-3.121,13.875,13.875,0,0,0-2.221,3.6,57.01,57.01,0,0,0-2.4,6.782,50.123,50.123,0,0,1-1.74-9.422,15.377,15.377,0,0,1,.24-4.381,9.606,9.606,0,0,0-2.281,3.241,35.638,35.638,0,0,0-2.161,5.461,26.061,26.061,0,0,1-.06-10.983,14.995,14.995,0,0,1,9.9-11.463,42.755,42.755,0,0,1-6.722-9.963c-1.2-2.7-2.041-5.7-1.26-8.642a6.611,6.611,0,0,1,5.521-4.861,5.189,5.189,0,0,1,2.341.36,30.41,30.41,0,0,1-1.5-6.122c-.06-1.08-.06-2.161-.18-3.241a29.68,29.68,0,0,1,6.242-17.885,30.916,30.916,0,0,1,10.5-9,19.692,19.692,0,0,1,3.121-1.2.455.455,0,0,0,.12.24A14.862,14.862,0,0,0,45.2,38.465a22.4,22.4,0,0,1,8.042-9.782,22.643,22.643,0,0,1,7.8-3.361c-1.62,2.761-1.56,6.182-1.14,9.242a20.894,20.894,0,0,1,9.242-9.122A13.987,13.987,0,0,1,74.725,24a10.26,10.26,0,0,0-2.641,8.162,15.19,15.19,0,0,1,3.6-5.041A12.621,12.621,0,0,1,86.008,24.3a7.083,7.083,0,0,0-2.881,3.961,4.022,4.022,0,0,0,.18,2.521,18.142,18.142,0,0,1,3.121-3.3A13.484,13.484,0,0,1,96.45,25.142a6.533,6.533,0,0,0-3.121,2.7,5.25,5.25,0,0,0-.6,2.7,15.16,15.16,0,0,1,11.1-3.9,8.183,8.183,0,0,0-2.641,3.721c3-2.161,6.842-2.581,10.443-2.341a9.259,9.259,0,0,0-1.62,3.481,10.577,10.577,0,0,1,3.841-.9,24.015,24.015,0,0,1,4.621-.18,8.242,8.242,0,0,0-1.56,2.221,17.7,17.7,0,0,1,6.3-1.56,8.134,8.134,0,0,0-1.5,2.4,24.757,24.757,0,0,1,6.242-1.08,5,5,0,0,0-1.86,2.161,14.465,14.465,0,0,0,9.843-3.6,13.213,13.213,0,0,0,3.9-7.022A6.452,6.452,0,0,0,139.6,18m-1.38,12.9a14.08,14.08,0,0,1-6.062,4.141,16.263,16.263,0,0,1-6.542,1.02,4.354,4.354,0,0,0-.54-.3,3.23,3.23,0,0,1,.24-1.32,14.415,14.415,0,0,0-5.942,1.2.8.8,0,0,0-.3-.18,4.916,4.916,0,0,1,2.4-2.4,12.982,12.982,0,0,0-6.962,2.1,4.342,4.342,0,0,1,1.92-3.121,17.132,17.132,0,0,0-8.882,2.521,13.941,13.941,0,0,1,1.26-4.621,7.537,7.537,0,0,0-3.961.72c-.18.06-.42.18-.6.24a13.594,13.594,0,0,0-3.541,2.821,3.158,3.158,0,0,1-.84.72,12.166,12.166,0,0,1,.06-3.3l.36-1.26c.18-.36.24-.78.6-.96v-.18a14.947,14.947,0,0,0-2.221.54,11.359,11.359,0,0,0-4.921,3.3c-.48.6-1.02,1.08-1.44,1.62.06-1.14-.48-2.221-.54-3.361a5.948,5.948,0,0,1,.72-3.661c.06-.06.18-.18.24-.18a13.926,13.926,0,0,0-2.281.42,10.058,10.058,0,0,0-3,1.74,16.132,16.132,0,0,0-3.9,5.281,17.158,17.158,0,0,1-1.2-4.141,6.566,6.566,0,0,1,.78-4.381,8.257,8.257,0,0,0-4.861,1.44A18.624,18.624,0,0,0,72.8,34.444c-.18.48-.42.96-.6,1.44-1.08-2.881-1.8-6-1.02-9a12.1,12.1,0,0,0-1.38.42c-4.081,1.86-7.022,5.521-9.062,9.422a5.339,5.339,0,0,0-.84,2.1c-.12,0-.3.06-.36.06a19.193,19.193,0,0,1-1.5-6.842c-.06-1.14.24-2.281.24-3.421-.36.12-.66.18-1.02.3A15.794,15.794,0,0,0,51.979,32.7,24.469,24.469,0,0,0,46.4,42.666a27.878,27.878,0,0,1-4.321-7.982,9.569,9.569,0,0,1-.36-1.8,16.787,16.787,0,0,0-4.561,2.461,29.257,29.257,0,0,0-11.523,18.6,46.281,46.281,0,0,0-.3,7.622,22.967,22.967,0,0,0,.78,5.341,27.605,27.605,0,0,1,.78,3l.24.24a7.323,7.323,0,0,0-4.8-.24c-1.8.6-3.541,2.161-3.6,4.141a12.183,12.183,0,0,0,.42,4.441c1.68,4.861,4.861,8.942,8.162,12.843-1.08.54-2.281.96-3.361,1.56a15.14,15.14,0,0,0-5.161,4.381,24.577,24.577,0,0,0-1.38,2.4,24.428,24.428,0,0,0-1.44,7.442,10.846,10.846,0,0,1,6.242-5.942,2.042,2.042,0,0,0,.6-.06l-.3.12a13.512,13.512,0,0,0-1.5,4.861c0,2.281-.18,4.621.54,6.842a14.171,14.171,0,0,1,3.061-6.062,18.175,18.175,0,0,1,5.461-3.781,5.946,5.946,0,0,0-1.74,2.281,6.529,6.529,0,0,0-.72,3.961,4.9,4.9,0,0,0,1.02,3.6c1.26-3.061,4.141-5.041,7.022-6.422,1.44-.66,3-1.2,4.5-1.74a81.163,81.163,0,0,0,6.242,7.382,31.81,31.81,0,0,0,6.9,5.461c.06.06.12.06.12.12l-.36-.06a40.092,40.092,0,0,1-5.341,1.08c-2.641.42-5.281.72-7.982,1.08a16.009,16.009,0,0,0-4.141.96,16.943,16.943,0,0,0-8.162,6.422,7.692,7.692,0,0,0-.48,7.382c1.38,2.941,4.081,4.921,6.722,6.6a5.849,5.849,0,0,1-.3-.66,16.965,16.965,0,0,0-.66-1.86,11.441,11.441,0,0,1,.48-7.082,14.3,14.3,0,0,0,.96,3.481c.96,2.1,2.1,4.321,4.141,5.581a2.251,2.251,0,0,1,.6.06,14.073,14.073,0,0,1-1.32-6.242,3.413,3.413,0,0,1,2.4-2.941,12.091,12.091,0,0,1,3.3-.3,13.7,13.7,0,0,0,5.521,6c.18.06.36.12.6.18a6.764,6.764,0,0,0-.18-1.08,11.115,11.115,0,0,1-.24-4.441c.18-.48.18-1.14.66-1.44,1.08-.12,2.221,0,3.361-.12,2.1-.24,4.2-.06,6.3-.24a1.413,1.413,0,0,1,.48.12,8.254,8.254,0,0,0,1.5,5.281c.18,0,.36.06.54.06a9.7,9.7,0,0,1,.84-2.641,31.508,31.508,0,0,1,1.981-2.941c.6,1.26.9,2.581,1.62,3.781a15.136,15.136,0,0,0,2.461,3.361c.06.12.18.3.24.42a2.25,2.25,0,0,1,.06-.66,9.776,9.776,0,0,1-.84-7.442,7.46,7.46,0,0,0,4.741-1.38c1.981-1.2,3.361-3.181,5.461-4.261,1.8-.54,3.721.06,5.461.42l1.44.36c.54.18,1.08.3,1.62.48.18.06.42.06.6.12a13.033,13.033,0,0,0,1.44.42l.18.06c1.2.3,2.341.72,3.541.9l.12.12c1.32.24,2.581.6,3.9.78a113.9,113.9,0,0,0,15.664.54,11.8,11.8,0,0,1,1.44-.18,40.585,40.585,0,0,0,7.142-.72,30.451,30.451,0,0,0,10.2-3.6,10.658,10.658,0,0,0,4.8-5.461,7.8,7.8,0,0,0,.24-3.721,10.341,10.341,0,0,0-1.14-2.641,12.351,12.351,0,0,0-8.282-5.221,14.021,14.021,0,0,0-5.7.12,18.071,18.071,0,0,1,7.8-.54,17.206,17.206,0,0,1,8.042,3.6,17.515,17.515,0,0,1,4.681,6c.36.84.6,1.74.96,2.581a14.268,14.268,0,0,1,.18,5.521,12.949,12.949,0,0,1-7.262,8.822,29.341,29.341,0,0,1-11.943,2.641,19.662,19.662,0,0,1-4.2,0c-6.962-.18-13.563-2.641-20.405-3.481-2.4-.3-4.741-.66-7.142-.72-2.221-.24-4.5-.06-6.722-.3a5.647,5.647,0,0,1-4.2-1.56,21.829,21.829,0,0,1-1.8-2.761,11.888,11.888,0,0,1-1.38,8.222,14.01,14.01,0,0,1-8.342,6.422,22.633,22.633,0,0,1-5.281.9,10.706,10.706,0,0,1-4.741-1.02,7.9,7.9,0,0,1-4.021-5.761c-.12.66-.3,1.38-.48,2.041-.18.78-.3,1.62-.48,2.4a17.682,17.682,0,0,0,.06,2.521,16.085,16.085,0,0,0-1.62.42l-.12.06c-1.62.48-3.181,1.02-4.8,1.5a4.91,4.91,0,0,1-1.5-1.2,25.2,25.2,0,0,1-4.081-6.3,25.074,25.074,0,0,0,.84,8.942,16.465,16.465,0,0,1-5.882-1.08c-.24-.24-.48-.42-.72-.66a22.626,22.626,0,0,0,3,3.721,14.07,14.07,0,0,0,8.822,4.081,21.817,21.817,0,0,0,5.221-.3,43.912,43.912,0,0,0,5.521-1.44c2.461-.84,4.921-1.981,7.562-2.161,5.581.54,11.223,1.2,16.8,1.56,1.02.06,1.981.06,3,.18,1.32.06,2.641.06,3.961.12a41.338,41.338,0,0,0,4.741.12c2.1,0,4.141.06,6.242-.06,1.981-.18,3.961,0,5.882-.3,3.661-.18,7.322-.6,10.923-1.14a2.473,2.473,0,0,1,1.32-.06c-.24.06-.48.12-.78.18a20.686,20.686,0,0,0-7.142,7.082,15.353,15.353,0,0,1,1.44-.66,92.311,92.311,0,0,1,9.542-3.721,6.575,6.575,0,0,1,1.56-.36,3.012,3.012,0,0,1-.72-.12c1.44-.18,2.761-.9,4.2-1.02a14.039,14.039,0,0,1-1.86,1.44,12.6,12.6,0,0,0-4.921,6.482l.36-.36a48.06,48.06,0,0,1,6.362-3.121c.84-.3,1.62-.54,2.461-.84,1.56-.42,3.181-.84,4.741-1.14.6-.18,1.26-.3,1.86-.42.24-.06.66-.12.84-.18a15.411,15.411,0,0,0-2.281,4.681,31.414,31.414,0,0,0-.72,4.141c.06-.18.18-.3.24-.48a22.154,22.154,0,0,1,2.461-2.281,40.983,40.983,0,0,1,10.263-5.1,38.436,38.436,0,0,1,3.721-1.2,20.322,20.322,0,0,1,3.3-.78l.12-.12a16.446,16.446,0,0,1,1.68-.3c.6-.18,1.2-.3,1.86-.48,4.5-1.2,9.062-3.121,12.423-6.422a13.8,13.8,0,0,0,3.961-9.783,14.149,14.149,0,0,0-.12-2.281,34.317,34.317,0,0,0-1.68-6.362c-.42-1.08-.78-2.221-1.26-3.3a24.765,24.765,0,0,0-5.281-8.222c-2.761-2.821-6.482-4.561-10.143-5.882,0-.36-.06-.72-.06-1.08-.18-.96-.3-1.92-.42-2.881-.3-1.02-.48-2.1-.78-3.121a36.013,36.013,0,0,0-5.461-11.583,29.575,29.575,0,0,0-17.284-12.063,21.115,21.115,0,0,0-2.641-4.141,18.166,18.166,0,0,0-7.922-5.221c-.78-.24-1.5-.42-2.281-.6a33.487,33.487,0,0,0-3.421-.48,1.113,1.113,0,0,0,.12.42A10.629,10.629,0,0,1,118,71.894a10.821,10.821,0,0,1-.24,4.381,1.752,1.752,0,0,0-.12-.54,62.353,62.353,0,0,0-7.682-7.2c-.18-.06-.48-.12-.66-.18a2.641,2.641,0,0,0,.6-.12,6.249,6.249,0,0,1-2.161-1.14,15,15,0,0,0-8.7-2.341,37.7,37.7,0,0,1,1.5,4.381,21.167,21.167,0,0,1,.78,6.122,5.664,5.664,0,0,1-.18-.54,14.573,14.573,0,0,1-1.44-1.92,26.071,26.071,0,0,0-6.962-6.362,17.8,17.8,0,0,0-7.442-2.941,20.769,20.769,0,0,1,1.14,3.241l.12.18a26.339,26.339,0,0,1,.42,4.321c0,1.26-.06,2.521-.06,3.781a.634.634,0,0,0-.12-.3,2.919,2.919,0,0,1-.66-.84,30.007,30.007,0,0,0-3.181-4.921c-1.86-2.281-4.021-4.5-6.842-5.581a5.249,5.249,0,0,0-2.161-.3,17.047,17.047,0,0,1,.66,4.261,29.778,29.778,0,0,1-.84,5.641,31.174,31.174,0,0,0-5.821-9.3,8.31,8.31,0,0,0-5.821-2.7,9.833,9.833,0,0,1,1.08,3.061,15.048,15.048,0,0,1-.36,4.321,13.883,13.883,0,0,0-4.081-7.142,4.767,4.767,0,0,1,.96-3.061c1.74-2.521,4.561-3.9,7.262-5.1a66.316,66.316,0,0,1,17.765-3.961c1.08-.12,2.221-.06,3.3-.24,1.62-.12,3.3-.06,4.921-.18,3.121-.06,6.182.06,9.3-.18a10.624,10.624,0,0,1,1.38-.06c2.941-.06,5.882-.42,8.822-.72,1.74-.24,3.481-.54,5.161-.78l.12-.12a11.18,11.18,0,0,0,2.041-.42,45.364,45.364,0,0,0,11.163-3.781,21.682,21.682,0,0,0,7.922-6.422,13.721,13.721,0,0,0,1.8-3.481,4.168,4.168,0,0,1,.3-.78,12.113,12.113,0,0,0,.54-2.941,17.7,17.7,0,0,0-.3-5.041,14.719,14.719,0,0,1-3,6.962Z" transform="translate(-13.389 -18)" fill="#fddc04"/>
      <path id="Path_66003" data-name="Path 66003" d="M100.482,144.513a11.538,11.538,0,0,1,4.441-1.32,15.167,15.167,0,0,1,4.321.48c.66.18,1.26.3,1.92.48-.18,0-.54.06-.72.06a9.871,9.871,0,0,1,3.181,1.02,32.288,32.288,0,0,1,5.521,3.361,17.913,17.913,0,0,0-6.182.84c-2.941.96-5.4,3-7.682,5.041A41.107,41.107,0,0,1,91,162.757c-.24.12-.54.18-.78.3-.72.12-1.38.24-2.1.36-1.68.3-3.421.24-5.1.48a9.724,9.724,0,0,1-1.32.06c.3-.42.9-.54,1.32-.72a17.489,17.489,0,0,0,6.362-5.281c2.581-3.241,4.5-6.9,7.262-9.963a13.254,13.254,0,0,1,3.841-3.481ZM12.8,216.591c4.2,0,8.4-.18,12.6,0h2.1q-.09,2.521,0,5.041c-.84.06-1.68.12-2.521.12-1.5-.12-3.061.06-4.561,0l2.881,1.44c.06,3.9-.12,7.742.12,11.643,0,2.641-.18,5.341-.12,7.982V259.2c-1.86-1.56-3.6-3.241-5.461-4.861a2.8,2.8,0,0,1-.84-.84c-.06-2.281.06-4.5,0-6.782,0-2.821-.06-5.641.06-8.462v-9.062c-.12-2.521,0-5.1-.12-7.622H12.86c-.06-1.62-.06-3.3-.06-4.981Zm150.518,1.74c1.26-1.26,3.121-1.5,4.861-1.5,2.281.06,4.741-.24,6.842.9a3.587,3.587,0,0,1,1.921,2.761,39.149,39.149,0,0,1,.18,4.621c-1.86.06-3.781.18-5.641.24-.06-1.14.18-2.4-.36-3.421-.72-.6-1.74-.3-2.581-.06a5.015,5.015,0,0,0-.42,2.821v6.9a6.92,6.92,0,0,0,.18,1.56c-.96.06-1.86.18-2.821.24,2.641.6,5.341,1.02,7.982,1.5A4.73,4.73,0,0,1,177,237.116c.84,1.74.48,3.661.54,5.521.06,2.7-.06,5.461,0,8.162a6.8,6.8,0,0,1-2.4,5.7c-1.98,1.5-4.561,1.861-6.9,2.281a7.082,7.082,0,0,1-4.321-.18,3.225,3.225,0,0,1-1.62-2.281,30.3,30.3,0,0,1-.3-6.182c1.98-.36,3.961-.66,5.882-.96,0,1.08-.06,2.161,0,3.181,0,.54.36,1.2.96,1.14.9,0,2.1-.18,2.461-1.14a13.636,13.636,0,0,0,.18-3.121c-.06-2.821.12-5.641-.18-8.462l2.881-.36c-2.641-.42-5.281-.72-7.922-1.14-1.38-.3-3-.84-3.661-2.281a9.022,9.022,0,0,1-.66-4.021v-9.963c0-1.68.18-3.481,1.38-4.681Zm-69.858,12.9c2.1-.06,4.141,0,6.242,0,.48,5.882.9,11.763,1.38,17.645a14.869,14.869,0,0,1-.36,3.661c-.48,3.361-1.02,6.722-1.38,10.083,2.641-10.443,5.341-20.885,7.922-31.388h1.8c1.8,6.6,3.661,13.2,5.521,19.805.9,3.061,1.62,6.122,2.641,9.122-.66-2.881-.96-5.822-1.56-8.7-.66-3-.12-6,.06-9,.36-3.721.6-7.5.96-11.223,2.1,0,4.2-.06,6.3,0-1.14,12.6-2.161,25.206-3.241,37.81-2.041.42-4.141.9-6.182,1.32-1.5-5.161-2.881-10.323-4.381-15.484a3.651,3.651,0,0,1-.18-1.38c.3-2.641.54-5.221.78-7.862-2.281,9-4.561,18.065-6.842,27.067-2.041.42-4.081.9-6.182,1.32q-1.71-21.425-3.3-42.791Zm34.149,0c1.08,0,2.1,0,3.181-.06,2.341-.12,4.741.06,7.082.06l3.421,26.827a.994.994,0,0,1-.3.78l-5.4,6.842c-.18-1.44-.24-2.881-.42-4.321-1.5,1.62-3,3.181-4.441,4.861-.3.3-.6.72-1.08.78-1.98.42-3.961.78-5.942,1.32a51.826,51.826,0,0,1,.54-6c1.02-10.443,2.161-20.765,3.361-31.088M131.39,253.5a6.286,6.286,0,0,1-.3,1.8c-1.08,2.4-2.341,4.741-3.3,7.142,2.221-2.461,4.441-4.861,6.662-7.322.24-.24.06-.66.06-.96-.6-6.122-1.08-12.243-1.68-18.425-.54,5.942-.96,11.823-1.44,17.765Zm12.543-22.266H150.3c.18,3.481,0,6.962.06,10.443-1.02.6-1.98,1.14-3,1.74,2.1-.12,4.2-.3,6.3-.48v-11.7h6.422c-.06,2.221.12,4.441.06,6.662,0,5.761.06,11.583-.06,17.344-2.221,2.1-4.2,4.441-6.482,6.542.06-3.9.06-7.862.06-11.823.96-.66,2.041-1.26,3-1.86-2.1.18-4.2.54-6.3.72-.06,2.641.06,5.341-.06,7.982-.78.96-1.74,1.86-2.581,2.761-1.32,1.38-2.521,2.821-3.841,4.2.06-10.8.06-21.666.06-32.528Zm-65.537.12c3.421.06,6.9-.12,10.323-.06,1.62,14.524,3.361,28.987,5.041,43.511-2.521-.54-5.041-1.08-7.5-1.68-1.68-1.8-3.361-3.541-5.041-5.281-.12,1.32-.24,2.641-.42,3.961-1.981-1.86-3.961-3.661-5.942-5.521C76,254.641,77.256,243,78.4,231.355m5.1,4.621c-.48,7.982-1.14,15.9-1.68,23.886,0,.78.78,1.2,1.2,1.74,1.92,2.161,3.9,4.261,5.821,6.422-1.08-2.161-2.1-4.321-3.121-6.482a3.635,3.635,0,0,1-.66-1.74c-.36-5.161-.66-10.383-1.02-15.544C83.858,241.5,83.8,238.737,83.5,235.976ZM29.064,231.6c3.541,0,7.082-.06,10.623,0q2.251,16.114,4.381,32.228c-1.981-.36-3.961-.9-5.942-1.26-.42-.12-.84-.12-1.14-.42-1.62-1.74-3.241-3.481-4.981-5.161-.18,1.38-.24,2.761-.54,4.141-1.981-1.86-4.021-3.721-6-5.581q1.89-12.063,3.6-23.946m5.4,3.721c-.54,5.161-1.14,10.323-1.74,15.424,2.281,2.521,4.621,5.041,6.9,7.622-.84-2.041-1.86-4.021-2.821-6a6.753,6.753,0,0,1-.84-2.161c-.48-4.921-1.02-9.9-1.5-14.884Zm10.923-3.661c1.981,1.86,4.021,3.721,6.062,5.521.24.24.6.54.54.9-.06,6.362.06,12.663-.06,19.025-1.02.42-2.1.72-3.181,1.14,3.181.72,6.3,1.38,9.482,2.1-.06,2.161,0,4.381-.06,6.542-4.261-.96-8.582-1.921-12.843-2.821-.12-3.781,0-7.562-.06-11.4.06-2.881-.06-5.761.06-8.642-.18-3.3-.06-6.6-.06-9.9C45.268,233.335,45.388,232.5,45.388,231.655Zm14.944,7.5c.06-2.521-.06-5.041.06-7.562,2.1,2.281,4.381,4.381,6.542,6.662-.12,7.322-.06,14.584-.06,21.906-1.02.42-2.1.78-3.121,1.2,3.181.78,6.362,1.44,9.542,2.281-.12,2.221,0,4.381-.06,6.6-4.321-.96-8.582-1.921-12.9-2.821V239.157Z" transform="translate(-12.8 -68.053)" fill="#fddc04"/>
    </g>
  </g>
</svg>
