<svg xmlns="http://www.w3.org/2000/svg" width="21.677" height="21.663" viewBox="0 0 21.677 21.663">
  <g id="vuesax_bold_document-text" data-name="vuesax/bold/document-text" transform="translate(-73.176 -17.948)">
    <g id="home_2_" data-name="home (2)" transform="translate(73.176 17.948)">
      <path id="Path_65979" data-name="Path 65979" d="M194.71,319.841a2.71,2.71,0,0,0-2.71,2.71v5.419h5.419v-5.419A2.71,2.71,0,0,0,194.71,319.841Z" transform="translate(-183.871 -306.307)" fill="#a60057"/>
      <g id="Group_15417" data-name="Group 15417" transform="translate(0 0)">
        <path id="Path_65980" data-name="Path 65980" d="M15.354,16.4v5.419h3.613a2.71,2.71,0,0,0,2.71-2.71V10.875a1.806,1.806,0,0,0-.509-1.257l-7.675-8.3a3.613,3.613,0,0,0-5.105-.2q-.1.1-.2.2L.525,9.615A1.806,1.806,0,0,0,0,10.889v8.224a2.71,2.71,0,0,0,2.71,2.71H6.322V16.4a4.516,4.516,0,1,1,9.032,0Z" transform="translate(0 -0.16)" fill="#a60057"/>
        <path id="Path_65981" data-name="Path 65981" d="M194.71,319.841a2.71,2.71,0,0,0-2.71,2.71v5.419h5.419v-5.419A2.71,2.71,0,0,0,194.71,319.841Z" transform="translate(-183.871 -306.307)" fill="#a60057"/>
      </g>
    </g>
  </g>
</svg>
