<svg xmlns="http://www.w3.org/2000/svg" width="28.628" height="17.699" viewBox="0 0 28.628 17.699">
  <path id="play-station-controller-svgrepo-com" d="M26.149,95.6c-2.3-4.7-4.755-5.027-7.045-3.907a4.742,4.742,0,0,0-1.709,1.326H11.234a4.736,4.736,0,0,0-1.708-1.326c-2.29-1.12-4.75-.792-7.045,3.907S-1.08,107.583,1.21,108.7c1.408.688,3.829-1.12,6.02-3.7a3.711,3.711,0,0,0,6.906-1.064h.354a3.711,3.711,0,0,0,6.9,1.08c2.335,2.646,4.73,4.323,6.028,3.688C29.708,107.583,28.444,100.293,26.149,95.6ZM7.96,99.893a.433.433,0,0,1-.024.118.441.441,0,0,1-.324.312.477.477,0,0,1-.1.021H6.024a.451.451,0,0,1-.451-.451v-.911H4.661a.451.451,0,0,1-.451-.451V97.046a.451.451,0,0,1,.451-.451h.912v-.913a.451.451,0,0,1,.451-.451H7.509a.451.451,0,0,1,.451.451v.913h.912a.451.451,0,0,1,.451.451v1.484a.451.451,0,0,1-.451.451H7.96Zm2.534,5.575a2.238,2.238,0,1,1,2.238-2.238A2.238,2.238,0,0,1,10.494,105.468Zm7.64,0a2.238,2.238,0,1,1,2.238-2.238A2.238,2.238,0,0,1,18.134,105.468Zm2.079-6.821a.859.859,0,1,1,.858-.86A.859.859,0,0,1,20.213,98.647Zm2.083,1.706a.854.854,0,0,1-.313.063c-.018,0-.033-.009-.05-.01a.986.986,0,0,1-.807-.848.858.858,0,1,1,1.171.8Zm0-3.539a.853.853,0,1,1,.545-.8A.852.852,0,0,1,22.3,96.814Zm1.457,1.833a.859.859,0,1,1,.858-.86A.858.858,0,0,1,23.752,98.647Z" transform="translate(0 -91.151)" fill="#a60057"/>
</svg>
