<svg xmlns="http://www.w3.org/2000/svg" width="21.667" height="21.664" viewBox="0 0 21.667 21.664">
  <g id="vuesax_linear_cup" data-name="vuesax/linear/cup" transform="translate(-364 -380.001)">
    <path id="microphone-alt" d="M8.433,9.745a5.579,5.579,0,0,1,.492-7.471L9.5,1.7a5.579,5.579,0,0,1,7.47-.491A5.368,5.368,0,0,1,18.9,5.131a5.426,5.426,0,0,1-1.581,4.063l-.9.9a5.433,5.433,0,0,1-3.833,1.587q-.116,0-.233-.005A5.372,5.372,0,0,1,8.433,9.745Zm8.5,4.7a4.707,4.707,0,0,0-3.347,1.386,13.669,13.669,0,0,1-9.731,4.031H2.819A1.012,1.012,0,0,1,2.1,18.135l.632-.632a6.479,6.479,0,0,0,4.153-1.889l2.757-2.757a7.223,7.223,0,0,1-2.594-1.95,6.833,6.833,0,0,1-.977-1.557l-2.733,2.73a6.474,6.474,0,0,0-1.889,4.153l-.632.632a2.818,2.818,0,0,0,2,4.8H3.857a15.466,15.466,0,0,0,11.007-4.559,2.928,2.928,0,0,1,5,2.069v1.587a.9.9,0,1,0,1.806,0V19.178a4.739,4.739,0,0,0-4.734-4.733Z" transform="translate(363.999 379.996)" fill="#a60057"/>
  </g>
</svg>
