<svg xmlns="http://www.w3.org/2000/svg" width="29.948" height="19.365" viewBox="0 0 29.948 19.365">
  <g id="Group_15424" data-name="Group 15424" transform="translate(-162.81 -259.818)">
    <g id="vuesax_linear_emoji-happy" data-name="vuesax/linear/emoji-happy" transform="translate(-264.433 -123.5)">
      <path id="play-station-controller-svgrepo-com" d="M25.97,94.565c-2.28-4.666-4.723-3.992-7-2.88A4.71,4.71,0,0,0,17.276,93H11.157a4.7,4.7,0,0,0-1.7-1.317c-2.274-1.112-4.717-.786-7,3.88S-1.072,107.471,1.2,108.583c1.4.683,3.8-1.112,5.979-3.678a3.686,3.686,0,0,0,6.859-1.057h.351a3.686,3.686,0,0,0,6.85,1.073c2.319,2.628,4.7,4.293,5.987,3.662C29.506,107.471,28.25,99.231,25.97,94.565Zm-15.548,9.805a2.223,2.223,0,1,1,2.223-2.223A2.223,2.223,0,0,1,10.422,104.371Zm7.588,0a2.223,2.223,0,1,1,2.223-2.223A2.223,2.223,0,0,1,18.01,104.371Z" transform="translate(428 293.184)" fill="none" stroke="#8a9099" stroke-width="1.5"/>
    </g>
    <path id="play-station-controller-svgrepo-com-2" data-name="play-station-controller-svgrepo-com" d="M18.653,98.069a.793.793,0,1,1,.792-.793A.792.792,0,0,1,18.653,98.069Zm1.922,1.575a.788.788,0,0,1-.289.059c-.016,0-.03-.009-.047-.01a.91.91,0,0,1-.745-.783.792.792,0,1,1,1.08.734Zm0-3.266a.787.787,0,1,1,.5-.734A.786.786,0,0,1,20.575,96.377Zm1.344,1.692a.793.793,0,1,1,.792-.793A.792.792,0,0,1,21.919,98.069Z" transform="translate(164.559 169.648)" fill="none" stroke="#8a9099" stroke-width="0.8"/>
    <path id="play-station-controller-svgrepo-com-3" data-name="play-station-controller-svgrepo-com" d="M7.346,99.218a.4.4,0,0,1-.022.109.407.407,0,0,1-.3.288.44.44,0,0,1-.1.019H5.559a.417.417,0,0,1-.416-.416v-.841H4.3a.416.416,0,0,1-.416-.416v-1.37a.417.417,0,0,1,.416-.416h.842v-.842a.417.417,0,0,1,.416-.416h1.37a.417.417,0,0,1,.416.416v.842h.842a.417.417,0,0,1,.416.416v1.37a.417.417,0,0,1-.416.416H7.346Z" transform="translate(164.559 169.582)" fill="none" stroke="#8a9099" stroke-width="0.8"/>
  </g>
</svg>
