<svg xmlns="http://www.w3.org/2000/svg" width="22.453" height="22.387" viewBox="0 0 22.453 22.387">
  <g id="vuesax_linear_cup" data-name="vuesax/linear/cup" transform="translate(-363 -380)">
    <path id="microphone-alt_1_" data-name="microphone-alt (1)" d="M17.544,14.969a4.877,4.877,0,0,0-3.467,1.436L11.27,19.211a4.646,4.646,0,0,1-3.306,1.37H2.92a1.049,1.049,0,0,1-.743-1.79l.361-.361a2.773,2.773,0,0,0,3.187-.542l5.917-5.912a5.621,5.621,0,0,0,1.208.187h.244a5.629,5.629,0,0,0,3.971-1.644L18,9.584a5.621,5.621,0,0,0,1.638-4.209,5.561,5.561,0,0,0-2.01-4.061,5.779,5.779,0,0,0-7.739.509L9.3,2.415A5.921,5.921,0,0,0,7.713,7.965L1.757,13.921a2.8,2.8,0,0,0-.54,3.18l-.363.363A2.919,2.919,0,0,0,2.92,22.452H7.964a6.5,6.5,0,0,0,4.629-1.918L15.4,17.728a3.033,3.033,0,0,1,5.178,2.145v2.58h1.871v-2.58a4.91,4.91,0,0,0-4.9-4.9ZM10.622,3.734l.592-.593a4.128,4.128,0,0,1,2.9-1.216,3.568,3.568,0,0,1,2.311.82,3.714,3.714,0,0,1,1.346,2.708,3.753,3.753,0,0,1-1.092,2.806l-.935.935a3.741,3.741,0,0,1-5.518-.249,3.9,3.9,0,0,1,.395-5.212ZM3.08,15.243l5.459-5.46c.085.122.153.253.25.368a5.723,5.723,0,0,0,1.058.971L4.4,16.566a.955.955,0,0,1-1.323,0,.935.935,0,0,1,0-1.323Z" transform="translate(363.005 379.936)" fill="#8a9099"/>
  </g>
</svg>
