<svg xmlns="http://www.w3.org/2000/svg" width="22" height="22" viewBox="0 0 22 22">
  <g id="vuesax_linear_document-text" data-name="vuesax/linear/document-text" transform="translate(-173 -188.666)">
    <g id="vuesax_linear_document-text-2" data-name="vuesax/linear/document-text" transform="translate(173 188.666)">
      <path id="home_3_" data-name="home (3)" d="M21.194,8.32,14.241,1.362a4.589,4.589,0,0,0-6.483,0L.806,8.32A2.732,2.732,0,0,0,0,10.265v9a2.751,2.751,0,0,0,2.75,2.752h16.5A2.751,2.751,0,0,0,22,19.27v-9A2.732,2.732,0,0,0,21.194,8.32ZM13.75,20.187H8.25V16.579a2.75,2.75,0,1,1,5.5,0Zm6.417-.917a.917.917,0,0,1-.917.917H15.583V16.579a4.583,4.583,0,1,0-9.167,0v3.608H2.75a.917.917,0,0,1-.917-.917v-9A.925.925,0,0,1,2.1,9.617L9.055,2.662a2.756,2.756,0,0,1,3.89,0L19.9,9.62a.925.925,0,0,1,.269.646Z" transform="translate(0 -0.021)" fill="#8a9099"/>
    </g>
  </g>
</svg>
